<?xml version="1.0" encoding="utf-8"?>
<!-- Generator: Adobe Illustrator 14.0.0, SVG Export Plug-In . SVG Version: 6.00 Build 43363)  -->
<!DOCTYPE svg PUBLIC "-//W3C//DTD SVG 1.1//EN" "http://www.w3.org/Graphics/SVG/1.1/DTD/svg11.dtd">
<svg version="1.1" id="Layer_1" xmlns="http://www.w3.org/2000/svg" xmlns:xlink="http://www.w3.org/1999/xlink" x="0px" y="0px"
	 width="2048px" height="2048px" viewBox="0 0 2048 2048" enable-background="new 0 0 2048 2048" xml:space="preserve">
<path fill="#231F20" d="M1616.129,1071.914H169.708C76.13,1071.914,0,995.843,0,902.368v-769.91C0,38.983,76.13-37.08,169.708-37.08
	h1446.421c93.438,0,169.465,76.063,169.465,169.538v769.91C1785.594,995.843,1709.566,1071.914,1616.129,1071.914L1616.129,1071.914
	z M169.708,42.766c-49.541,0-89.857,40.258-89.857,89.692v769.91c0,49.434,40.316,89.691,89.857,89.691h1446.421
	c49.397,0,89.618-40.258,89.618-89.691v-769.91c0-49.434-40.221-89.692-89.618-89.692H169.708L169.708,42.766z"/>
<path fill="#231F20" d="M39.923,515.169c0-56.999,0-54.674,0-54.674v441.873c0,71.62,58.164,129.619,129.784,129.619h1446.421
	c71.547,0,129.538-57.999,129.538-129.619V515.169H39.923z"/>
<path fill="#231F20" d="M247.478,17.298V-93.048c0-17.778,14.548-32.319,32.496-32.319h150.141
	c17.947,0,32.487,14.541,32.487,32.319V17.298"/>
<path fill="#231F20" d="M1335.458,17.298V-93.048c0-17.778,14.459-32.319,32.405-32.319h150.142
	c17.947,0,32.487,14.541,32.487,32.319V17.298"/>
<g>
	<path fill="#FFFFFF" d="M627.283-70.444l-216.698,530.94l-3.569,12.465c-11.633,42.877-17.784,87.742-17.784,134.107
		c0,283.085,229.663,512.74,512.829,512.74s512.741-229.655,512.741-512.74c0-50.854-7.388-100.038-21.266-146.403l-4.076-13.878
		L1180.496-70.444H627.283z"/>
	<path fill="#231F20" d="M902.062,1159.736c-304.793,0-552.75-247.941-552.75-552.668c0-49.022,6.438-97.677,19.169-144.579
		l5.128-17.071L600.447-110.37h606.966l224.425,559.777c15.166,50.684,22.893,103.774,22.893,157.661
		C1454.729,911.795,1206.795,1159.736,902.062,1159.736L902.062,1159.736z M448.37,473.587l-2.966,10.382
		c-10.722,39.507-16.247,81.143-16.247,123.1c0,260.693,212.15,472.821,472.903,472.821c260.693,0,472.821-212.128,472.821-472.821
		c0-46.116-6.606-91.524-19.608-134.938l-4.113-14.084L1153.572-30.517H654.119L448.37,473.587L448.37,473.587z"/>
</g>
<path fill="#231F20" d="M902.062,1007.102c-220.584,0-400.033-179.472-400.033-400.032c0-220.562,179.449-400.033,400.033-400.033
	c220.517,0,399.951,179.472,399.951,400.033C1302.014,827.63,1122.578,1007.102,902.062,1007.102L902.062,1007.102z
	 M902.062,286.881c-176.545,0-320.188,143.622-320.188,320.188c0,176.564,143.643,320.187,320.188,320.187
	c176.521,0,320.104-143.622,320.104-320.187C1222.167,430.503,1078.582,286.881,902.062,286.881L902.062,286.881z"/>
<path fill="#231F20" d="M902.062,858.704c-138.723,0-251.557-112.878-251.557-251.636c0-138.759,112.834-251.635,251.557-251.635
	c138.721,0,251.555,112.877,251.555,251.636C1153.617,745.827,1040.782,858.704,902.062,858.704L902.062,858.704z M902.062,435.279
	c-94.683,0-171.702,77.063-171.702,171.79c0,94.726,77.02,171.79,171.702,171.79c94.681,0,171.7-77.064,171.7-171.79
	C1073.763,512.343,996.742,435.279,902.062,435.279L902.062,435.279z"/>
</svg>
