<?xml version="1.0" encoding="utf-8"?>
<!-- Generator: Adobe Illustrator 14.0.0, SVG Export Plug-In . SVG Version: 6.00 Build 43363)  -->
<!DOCTYPE svg PUBLIC "-//W3C//DTD SVG 1.1//EN" "http://www.w3.org/Graphics/SVG/1.1/DTD/svg11.dtd">
<svg version="1.1" id="Layer_1" xmlns="http://www.w3.org/2000/svg" xmlns:xlink="http://www.w3.org/1999/xlink" x="0px" y="0px"
	 width="28px" height="28px" viewBox="0 0 28 28" enable-background="new 0 0 28 28" xml:space="preserve">
<g>
	<path fill="#231F20" d="M14.13,21.611c-3.456,0-6.267-2.812-6.267-6.268s2.812-6.269,6.267-6.269s6.267,2.813,6.267,6.269
		S17.586,21.611,14.13,21.611L14.13,21.611z M14.13,10.326c-2.766,0-5.017,2.25-5.017,5.018c0,2.766,2.25,5.016,5.017,5.016
		c2.765,0,5.016-2.25,5.016-5.016C19.146,12.576,16.896,10.326,14.13,10.326L14.13,10.326z"/>
	<path fill="#231F20" d="M14.13,19.284c-2.173,0-3.941-1.768-3.941-3.94c0-2.174,1.768-3.942,3.941-3.942
		c2.172,0,3.941,1.769,3.941,3.942C18.071,17.517,16.303,19.284,14.13,19.284L14.13,19.284z M14.13,12.652
		c-1.484,0-2.69,1.207-2.69,2.691c0,1.482,1.206,2.69,2.69,2.69c1.483,0,2.69-1.208,2.69-2.69
		C16.82,13.859,15.613,12.652,14.13,12.652L14.13,12.652z"/>
</g>
<g>
	<path fill="#231F20" d="M25.316,5.253h-1.028V4.376c0-0.279-0.229-0.507-0.508-0.507h-2.353c-0.281,0-0.508,0.229-0.508,0.507
		v0.877h-1.545l-0.461-1.148H9.406L8.938,5.253H7.246V4.376c0-0.279-0.228-0.507-0.508-0.507H4.385
		c-0.281,0-0.509,0.229-0.509,0.507v0.877H2.658C1.192,5.253,0,6.443,0,7.907v12.062c0,1.465,1.192,2.656,2.658,2.656h6.807
		C10.813,23.491,12.412,24,14.13,24c1.719,0,3.318-0.509,4.665-1.375h6.521c1.464,0,2.656-1.191,2.656-2.656V7.907
		C27.973,6.443,26.78,5.253,25.316,5.253z M1.251,13.903V7.907c0-0.774,0.631-1.403,1.407-1.403h5.77l-2.596,6.369l-0.06,0.207
		c-0.073,0.271-0.119,0.548-0.166,0.823H1.251z M6.723,15.344c0-0.657,0.086-1.309,0.253-1.928l3.271-8.061h7.824l3.095,7.656
		l0.065,0.219c0.203,0.683,0.307,1.394,0.307,2.114c0,4.084-3.323,7.406-7.408,7.406C10.045,22.75,6.723,19.428,6.723,15.344z
		 M26.722,13.903h-4.057c-0.06-0.349-0.135-0.694-0.234-1.031l-2.555-6.368h5.44c0.775,0,1.405,0.629,1.405,1.403V13.903z"/>
</g>
</svg>
