<?xml version="1.0" encoding="iso-8859-1"?>
<!-- Generator: Adobe Illustrator 14.0.0, SVG Export Plug-In . SVG Version: 6.00 Build 43363)  -->
<!DOCTYPE svg PUBLIC "-//W3C//DTD SVG 1.0//EN" "http://www.w3.org/TR/2001/REC-SVG-20010904/DTD/svg10.dtd">
<svg version="1.0" id="Layer_1" xmlns="http://www.w3.org/2000/svg" xmlns:xlink="http://www.w3.org/1999/xlink" x="0px" y="0px"
	 width="28px" height="28px" viewBox="0 0 28 28" style="enable-background:new 0 0 28 28;" xml:space="preserve">
<path d="M20,22.438c-0.438-2.51-1.166-5.104-2.188-7.78h-0.031l-0.031,0.016c-0.166,0.063-0.391,0.149-0.672,0.259
	s-0.808,0.364-1.578,0.766c-0.771,0.4-1.484,0.828-2.141,1.281c-0.657,0.452-1.339,1.049-2.047,1.789
	c-0.708,0.739-1.244,1.51-1.609,2.312l-0.234-0.172c1.917,1.562,4.094,2.344,6.531,2.344c1.375,0,2.709-0.271,4-0.812V22.438z
	 M17.109,12.953c-0.219-0.511-0.495-1.089-0.828-1.734c-3.24,0.969-6.745,1.453-10.516,1.453C5.754,12.745,5.749,12.854,5.749,13
	c0,1.291,0.229,2.523,0.688,3.695s1.104,2.221,1.937,3.147c0.521-0.927,1.164-1.794,1.93-2.602c0.766-0.808,1.508-1.456,2.227-1.945
	c0.718-0.489,1.398-0.911,2.039-1.266c0.641-0.354,1.158-0.605,1.555-0.75l0.578-0.203c0.042-0.011,0.109-0.029,0.203-0.055
	S17.066,12.973,17.109,12.953L17.109,12.953z M15.438,9.641c-1.25-2.219-2.521-4.188-3.812-5.906
	c-1.438,0.677-2.656,1.646-3.656,2.906c-1,1.26-1.667,2.677-2,4.25C9.115,10.891,12.271,10.474,15.438,9.641z M26.125,14.625
	c-2.188-0.625-4.318-0.776-6.391-0.453c0.906,2.489,1.572,4.932,2,7.328c1.156-0.781,2.119-1.769,2.891-2.961
	C25.396,17.346,25.896,16.041,26.125,14.625z M13.547,3.047c-0.011,0-0.021,0.005-0.031,0.016
	C13.527,3.052,13.537,3.047,13.547,3.047z M22.766,5.312C20.839,3.604,18.584,2.75,16,2.75c-0.792,0-1.599,0.099-2.422,0.297
	c1.365,1.771,2.646,3.76,3.844,5.969c0.719-0.271,1.396-0.586,2.031-0.945c0.635-0.359,1.138-0.679,1.508-0.961
	c0.37-0.281,0.711-0.578,1.023-0.891c0.312-0.312,0.507-0.523,0.586-0.633L22.766,5.312z M26.25,12.891
	c-0.031-2.417-0.807-4.552-2.328-6.406l-0.016,0.016c-0.094,0.125-0.193,0.252-0.297,0.383c-0.104,0.131-0.331,0.362-0.68,0.695
	c-0.35,0.333-0.72,0.647-1.109,0.945C21.43,8.821,20.909,9.16,20.257,9.54c-0.651,0.38-1.337,0.716-2.055,1.008
	c0.261,0.552,0.489,1.047,0.688,1.484c0.02,0.062,0.055,0.153,0.102,0.273c0.047,0.119,0.086,0.205,0.117,0.258
	c0.375-0.052,0.762-0.088,1.164-0.109c0.4-0.021,0.783-0.031,1.147-0.031s0.724,0.008,1.078,0.023c0.354,0.016,0.688,0.037,1,0.063
	c0.312,0.027,0.606,0.056,0.883,0.086c0.276,0.031,0.526,0.065,0.75,0.103c0.224,0.037,0.413,0.068,0.57,0.094
	s0.286,0.049,0.391,0.07L26.25,12.891z M28,13c0,2.178-0.536,4.186-1.609,6.023c-1.072,1.838-2.527,3.293-4.367,4.367
	c-1.838,1.072-3.846,1.609-6.022,1.608s-4.184-0.537-6.023-1.608c-1.839-1.072-3.294-2.528-4.367-4.367
	C4.538,17.184,4.002,15.176,4.002,13s0.536-4.184,1.609-6.023S8.139,3.682,9.978,2.61c1.839-1.072,3.846-1.608,6.023-1.609
	s4.185,0.536,6.022,1.609c1.84,1.074,3.295,2.529,4.367,4.367C27.464,8.815,28,10.823,28,13z"/>
</svg>
