<?xml version="1.0" encoding="utf-8"?>
<!-- Generator: Adobe Illustrator 14.0.0, SVG Export Plug-In . SVG Version: 6.00 Build 43363)  -->
<!DOCTYPE svg PUBLIC "-//W3C//DTD SVG 1.1//EN" "http://www.w3.org/Graphics/SVG/1.1/DTD/svg11.dtd">
<svg version="1.1" id="Layer_1" xmlns="http://www.w3.org/2000/svg" xmlns:xlink="http://www.w3.org/1999/xlink" x="0px" y="0px"
	 width="300px" height="300px" viewBox="0 0 300 300" enable-background="new 0 0 300 300" xml:space="preserve">
<g>
	<path d="M23.475,256.163c-37.327-39.328,23.048-77.027,37.957-94.255c14.804-14.062,35.784-59.756,50.964-75.365
		c39.07-40.186,115.673-13.052,126.61,14.576c4.847,12.278,3.89,44.104-23.398,54.082c-27.288,9.987-66.44,4.25-95.462,33.035
		c-22.717,22.53-17.342,50.788-34.706,66.069C82.116,257.218,50.701,284.823,23.475,256.163z"/>
	<path d="M278.479,99.789c-9.347,8.864-21.985,10.72-28.248,4.136c-6.262-6.582-3.735-19.116,5.602-27.978
		c9.337-8.894,21.976-10.75,28.238-4.159C290.334,78.381,287.824,90.905,278.479,99.789z"/>
	<path d="M249.478,72.79c-7.479,7.109-17.715,8.451-22.862,3.013c-5.159-5.416-3.279-15.578,4.189-22.667
		c7.49-7.107,17.714-8.448,22.873-3.043C258.824,55.541,256.946,65.691,249.478,72.79z"/>
	<path d="M219.3,60.389c-6.756,6.418-16.206,7.439-21.106,2.269c-4.902-5.157-3.396-14.524,3.362-20.943
		c6.768-6.438,16.219-7.468,21.108-2.29C227.586,44.563,226.08,53.951,219.3,60.389z"/>
	<path d="M188.34,54.87c-6.232,5.913-14.992,6.82-19.541,2.011c-4.57-4.809-3.219-13.493,3.022-19.426
		c6.211-5.902,14.959-6.798,19.529-1.991C195.911,40.26,194.56,48.958,188.34,54.87z"/>
	<path d="M156.222,56.551c-5.683,5.406-13.648,6.243-17.795,1.898c-4.138-4.375-2.878-12.278,2.817-17.683
		c5.695-5.405,13.658-6.273,17.796-1.908C163.176,43.211,161.929,51.145,156.222,56.551z"/>
</g>
</svg>
