<?xml version="1.0" encoding="iso-8859-1"?>
<!-- Generator: Adobe Illustrator 14.0.0, SVG Export Plug-In . SVG Version: 6.00 Build 43363)  -->
<!DOCTYPE svg PUBLIC "-//W3C//DTD SVG 1.0//EN" "http://www.w3.org/TR/2001/REC-SVG-20010904/DTD/svg10.dtd">
<svg version="1.0" id="Layer_1" xmlns="http://www.w3.org/2000/svg" xmlns:xlink="http://www.w3.org/1999/xlink" x="0px" y="0px"
	 width="28px" height="28px" viewBox="136 136 28 28" style="enable-background:new 136 136 28 28;" xml:space="preserve">
<path d="M149.999,137.236c-7.038,0-12.762,5.726-12.762,12.766c0,7.036,5.724,12.762,12.762,12.762
	c7.038,0,12.764-5.726,12.764-12.762C162.763,142.962,157.037,137.236,149.999,137.236z M149.314,140.51
	c-0.116-0.371-0.232-0.704-0.455-1.038c-0.206-0.308-0.418-0.625-0.796-0.73c-0.185-0.052-0.542,0.006-0.746-0.077
	c0.863-0.204,1.757-0.323,2.682-0.323c1.663,0,3.241,0.355,4.674,0.986c-0.106,0.258-0.294,0.474-0.434,0.726
	c-0.206,0.377-0.168,0.874-0.552,1.133c-0.356,0.242-0.863,0.408-1.257,0.604c-0.252,0.126-0.391,0.248-0.508,0.097
	c-0.211,0.162-0.461,0.27-0.682,0.435c-0.302,0.226-0.463,0.867-0.866,0.841c-0.278-0.018-0.865-0.526-0.972-0.775
	c-0.208-0.484-0.268-0.825,0.258-1.015C149.722,141.147,149.385,140.739,149.314,140.51z M147.066,142.244
	c-0.073,0.179-0.363,0.364-0.551,0.405c-0.333-0.453-0.427-0.399-0.94-0.6c-0.568-0.223-0.103-0.361-0.166-0.81
	c0.113-0.014,0.225-0.086,0.339-0.079c0.022-0.312,0.007-0.633,0.007-0.946l-0.052-0.153c0.426-0.049,0.981,0.391,1.171,0.684
	c0.125,0.195,0.17,0.304,0.406,0.435c0.197,0.109,0.525,0.129,0.5,0.399c-0.217,0.101-0.474,0.042-0.694,0.116
	C146.969,141.922,147.15,142.03,147.066,142.244z M161.495,148.144c-0.016,0.02-0.022,0.042-0.04,0.061
	c-0.463,0.479-0.586,0.398-0.918-0.043c-0.244-0.325-0.979-0.458-0.812,0.18c-0.59-0.029-0.418-0.568-0.807-0.81
	c-0.44-0.271-0.965,0.221-1.285,0.472c-0.467,0.362-1.986,1.035-1.86-0.089c0.069-0.604,0.352-0.533,0.81-0.671
	c0.576-0.172,0.208-0.485,0.479-0.868c0.235-0.33,0.79-0.13,1.116-0.344c0.363-0.237,0.512-0.769,0.996-0.853
	c0.452-0.079,1.176,0.578,1.578,0.324C161.103,146.334,161.347,147.223,161.495,148.144z M156.881,144.852
	c-0.153-0.047-0.174-0.16-0.146-0.316l0.052-0.305c0.681-0.258,0.264,0.798,0.906,0.821c0.061,0.136,0.123,0.232,0.207,0.352
	c-0.362,0.199-0.667,0.309-0.953,0.587c-0.048-0.216,0.055-0.389,0.087-0.583C156.663,145.446,156.811,145.041,156.881,144.852z
	 M158.633,157.807c-0.001-0.448-0.028-0.892-0.114-1.347c-0.11-0.601-0.125-1.354-0.394-1.903c-0.5-1.028-1.992-0.355-2.798-0.991
	c-0.728-0.571-1.177-1.746-0.704-2.584c0.45-0.798,1.302-1.64,2.185-1.913c1.244-0.386,2.218,0.116,3.036,1.038
	c0.238,0.027,0.341,0.216,0.551,0.272c0.223,0.06,0.358-0.048,0.508-0.101c0.196-0.071,0.497-0.103,0.75-0.169
	C161.625,153.069,160.484,155.763,158.633,157.807z M143.092,140.63c0.493-0.061,1.216-0.151,1.13,0.238
	c-0.443,0.29-0.932,0.584-1.34,0.922c-0.483,0.398-0.292,0.96-0.587,1.41c0.012,0.008,0.025,0.015,0.036,0.025
	c0.181,0.112,0.398,0.227,0.566,0.354c0.484,0.37,1.919,1.637,2.052,0.444c0.038-0.341,0.025-1.375,0.593-1.26
	c0.065,0.208,0.539,0.669,0.77,0.704c0.484,0.075,0.568-0.276,0.916,0.224c0.242,0.351,0.376,0.665,0.662,0.983
	c0.229,0.255,0.592,0.372,0.618,0.729c-0.292,0.175-0.623,0.177-0.97,0.199c-0.556,0.035-0.465,0.097-0.429,0.554
	c-0.418,0.032-0.683,0.4-0.934,0.63c-0.301,0.275-0.584,0.398-0.928,0.594c-0.445,0.255-0.445,0.604-0.728,1.006
	c-0.129,0.186-0.264,0.246-0.34,0.471c-0.08,0.229-0.02,0.569-0.333,0.601c-0.47-0.528-1.379-0.859-1.991-0.333
	c-0.795,0.683,0.439,1.308,0.898,1.676c0.614,0.485,0.907,1.214,1.75,1.335c0.894,0.13,1.715,0.035,2.549,0.478
	c0.714,0.382,1,1.101,1.619,1.578c0.503,0.388,2.03,0.52,2.177,1.194c0.108,0.505-0.633,1.555-0.895,1.97
	c-0.43,0.681-1.199,0.852-1.74,1.404c-0.557,0.564-0.922,1.129-1.567,1.618c-0.254,0.191-0.454,0.396-0.653,0.559
	c-0.602-0.221-1.179-0.483-1.729-0.797c0.045-0.301,0.091-0.602,0.159-0.908c0.12-0.562,0.453-0.935,0.512-1.52
	c0.062-0.633,0.065-0.97-0.388-1.464c-0.342-0.372-0.724-0.668-0.859-1.168c-0.171-0.631-0.166-0.939,0.156-1.464
	c0.308-0.508,0.188-0.79-0.178-1.196c-0.327-0.357-0.695-0.699-1.055-1.02c-0.402-0.354-1.033-0.381-1.515-0.63
	c-0.613-0.316-0.825-0.908-1.158-1.492c-0.284-0.502-0.407-1.234-1.09-1.279c-0.016,0.254-0.021,0.527,0.041,0.76
	c0.058,0.229,0.284,0.419,0.249,0.655c-0.308-0.244-0.507-0.592-0.684-0.943C138.878,145.264,140.606,142.469,143.092,140.63z"/>
</svg>
