<?xml version="1.0" encoding="utf-8"?>
<!-- Generator: Adobe Illustrator 14.0.0, SVG Export Plug-In . SVG Version: 6.00 Build 43363)  -->
<!DOCTYPE svg PUBLIC "-//W3C//DTD SVG 1.1//EN" "http://www.w3.org/Graphics/SVG/1.1/DTD/svg11.dtd">
<svg version="1.1" id="Layer_1" xmlns="http://www.w3.org/2000/svg" xmlns:xlink="http://www.w3.org/1999/xlink" x="0px" y="0px"
	 width="300px" height="300px" viewBox="0 0 300 300" enable-background="new 0 0 300 300" xml:space="preserve">
<g>
	<g>
		<path d="M253.263,230.047c-1.979,2.082-4.715,3.112-6.659,4.989c-2.083,2.024-2.311,5.56-6.178,4.621
			c0.594-7.242,0.229-14.025-1.11-21.165c-1.177-6.36-1.327-14.348-4.176-20.182c-5.297-10.893-21.119-3.765-29.666-10.504
			c-7.711-6.052-12.471-18.511-7.46-27.401c4.77-8.455,13.798-17.379,23.169-20.285c13.181-4.095,23.511,1.236,32.183,11.007
			c2.519,0.298,3.604,2.288,5.836,2.883c2.369,0.642,3.799-0.502,5.39-1.053c3.088-1.121,8.706-1.235,11.325-3.227v0.549
			c2.301,4.144,4.268,4.405,4.303,9.896c0.034,3.845,0.286,7.826,0.034,11.682c-0.493,7.599-4.429,12.584-6.179,19.586
			c-0.983,3.867-2.276,6.339-3.74,9.944c-1.202,2.939-1.134,5.972-1.866,8.912c9.178-18.135,14.462-38.581,14.462-60.283
			c0-73.99-59.961-133.953-133.94-133.953c-14.05,0-27.589,2.186-40.312,6.201c4.616-0.767,9.279-1.352,13.85-2.117
			c8.375-1.407,16.337-3.49,24.906-3.238c9.908,0.275,20.904,0.938,30.136,4.828c6.933,2.918,12.724,7.746,18.408,12.551
			l3.409-0.984c-0.241,4.553-3.387,7.505-5.445,11.234c-2.186,4.005-1.785,9.267-5.846,12.013c-3.787,2.563-9.153,4.325-13.33,6.408
			c-2.666,1.339-4.142,2.632-5.377,1.029c-2.243,1.718-4.885,2.86-7.23,4.611c-3.204,2.391-4.909,9.187-9.188,8.913
			c-2.952-0.183-9.177-5.571-10.297-8.215c-2.219-5.125-2.838-8.741,2.735-10.753c0.64-2.403-2.93-6.739-3.686-9.154
			c-1.236-3.935-2.471-7.458-4.828-11.006c-2.174-3.272-4.44-6.635-8.444-7.746c-2.963-0.813-10.217,1.076-9.451-3.717
			c-3.135-0.229-7.71-0.802-10.823-0.126c-3.135,0.653-5.125,2.986-7.654,4.119c-3.741,1.647-6.396,2.437-9.084,5.16
			c-2.773,2.792-2.333,3.97-2.642,7.963c-4.417-0.777-6.534-2.414-10.927,0.091c-2.345,1.328-6.671,3.89-6.144,6.888
			c3.123,0.206,17.23-3.34,16.005,2.163c-4.702,3.078-9.885,6.201-14.21,9.782c-5.125,4.222-3.088,10.182-6.212,14.942
			c0.126,0.08,0.252,0.161,0.378,0.263c1.922,1.189,4.221,2.414,6.006,3.763c5.137,3.914,20.354,17.345,21.762,4.714
			c0.4-3.615,0.262-14.587,6.281-13.362c0.686,2.208,5.709,7.093,8.156,7.458c5.125,0.802,6.029-2.928,9.714,2.381
			c2.573,3.718,3.992,7.047,7.024,10.423c2.437,2.71,6.27,3.935,6.544,7.722c-3.089,1.854-6.59,1.877-10.274,2.105
			c-5.891,0.377-4.92,1.029-4.553,5.881c-4.428,0.344-7.231,4.232-9.897,6.681c-3.186,2.906-6.178,4.222-9.829,6.292
			c-4.725,2.701-4.725,6.407-7.722,10.665c-1.374,1.967-2.792,2.597-3.604,4.987c-0.858,2.427-0.217,6.03-3.546,6.385
			c-4.978-5.618-14.623-9.131-21.109-3.547c-8.421,7.231,4.655,13.867,9.53,17.757c6.521,5.148,9.622,12.883,18.559,14.165
			c9.484,1.382,18.19,0.353,27.034,5.057c7.575,4.061,10.606,11.669,17.173,16.727c5.321,4.118,21.521,5.515,23.076,12.677
			c1.155,5.343-6.704,16.486-9.484,20.893c-4.565,7.205-12.71,9.014-18.454,14.872c-5.893,5.995-9.771,11.979-16.612,17.161
			c-7.414,5.629-10.538,12.209-20.835,7.827c-3.169-1.352-6.167-3.182-9.117-4.92l3.775,0.525
			c0.881-5.273,1.441-10.331,2.596-15.582c1.282-5.95,4.806-9.909,5.423-16.11c0.676-6.703,0.698-10.285-4.107-15.524
			c-3.627-3.946-7.677-7.082-9.119-12.391c-1.808-6.682-1.744-9.954,1.66-15.514c3.26-5.379,1.99-8.375-1.89-12.679
			c-3.471-3.797-7.372-7.412-11.188-10.811c-4.267-3.765-10.949-4.04-16.074-6.681c-6.486-3.354-8.741-9.623-12.265-15.823
			c-3.008-5.308-4.313-13.066-11.554-13.546c-0.172,2.688-0.224,5.583,0.423,8.055c0.618,2.414,3.02,4.439,2.643,6.922
			c-3.969-3.113-6.373-7.838-8.489-12.289c-2.414-5.068-5.938-8.111-5.744-13.58c-0.136-0.251-0.172-0.548-0.286-0.823
			c-2.671,10.56-4.245,21.555-4.245,32.94c0,73.954,59.952,133.917,133.917,133.917c50.031,0,93.578-27.481,116.574-68.12
			C261.969,220.928,257.506,225.573,253.263,230.047z M220.941,88.83c7.232-2.734,2.791,8.466,9.61,8.706
			c0.652,1.441,1.315,2.461,2.196,3.73c-3.833,2.106-7.072,3.272-10.103,6.224c-0.515-2.289,0.584-4.13,0.914-6.178
			c-3.924,0.413-2.355-3.89-1.613-5.903c-1.624-0.503-1.841-1.681-1.544-3.341L220.941,88.83z M218.803,120.762
			c6.097-1.83,2.196-5.148,5.067-9.21c2.494-3.501,8.387-1.374,11.843-3.649c3.854-2.516,5.421-8.146,10.559-9.049
			c6.145-1.063,17.094,10.903,19.404-1.407l1.624,2.15c0.343,3.021,3.729,3.227,5.126,5.675c1.876,3.272,0.801,8.833,0.789,12.425
			c-0.035,4.896,0.801,9.598-2.771,13.271c-4.907,5.079-6.212,4.222-9.723-0.458c-2.599-3.457-10.39-4.863-8.605,1.898
			c-6.258-0.309-4.438-6.018-8.557-8.581c-4.669-2.884-10.23,2.333-13.627,4.988c-4.942,3.844-21.063,10.983-19.723-0.938
			C210.941,121.472,213.94,122.226,218.803,120.762z M118.098,61.955c-1.237,2.403,0.674,3.547-0.218,5.812
			c-0.767,1.911-3.845,3.867-5.835,4.303c-3.535-4.806-4.52-4.233-9.977-6.361c-6.018-2.357-1.076-3.822-1.763-8.582
			c1.202-0.16,2.392-0.926,3.604-0.836c0.229-3.317,0.081-6.715,0.081-10.033l-0.55-1.624c4.521-0.526,10.412,4.142,12.424,7.253
			c1.316,2.06,1.797,3.228,4.291,4.61c2.095,1.156,5.577,1.362,5.297,4.222C123.166,61.794,120.443,61.177,118.098,61.955z"/>
	</g>
</g>
</svg>
