<?xml version="1.0" encoding="utf-8"?>
<!-- Generator: Adobe Illustrator 14.0.0, SVG Export Plug-In . SVG Version: 6.00 Build 43363)  -->
<!DOCTYPE svg PUBLIC "-//W3C//DTD SVG 1.0//EN" "http://www.w3.org/TR/2001/REC-SVG-20010904/DTD/svg10.dtd">
<svg version="1.0" id="Layer_1" xmlns="http://www.w3.org/2000/svg" xmlns:xlink="http://www.w3.org/1999/xlink" x="0px" y="0px"
	 width="300px" height="300px" viewBox="0 0 300 300" enable-background="new 0 0 300 300" xml:space="preserve">
<g>
	<path d="M35.389,245.895c-33.946-35.767,20.961-70.051,34.519-85.718c13.463-12.79,32.543-54.345,46.349-68.54
		c35.532-36.546,105.196-11.87,115.143,13.256c4.409,11.166,3.537,40.11-21.279,49.183c-24.817,9.083-60.423,3.866-86.816,30.044
		c-20.66,20.49-15.772,46.189-31.563,60.085C88.719,246.853,60.149,271.959,35.389,245.895z"/>
	<path d="M267.297,103.683c-8.5,8.061-19.994,9.749-25.689,3.762c-5.695-5.986-3.397-17.385,5.094-25.444
		c8.491-8.088,19.985-9.777,25.681-3.782S275.797,95.604,267.297,103.683z"/>
	<path d="M240.923,79.129c-6.802,6.465-16.111,7.685-20.792,2.74c-4.691-4.925-2.983-14.167,3.81-20.614
		c6.812-6.463,16.11-7.683,20.801-2.767C249.423,63.442,247.715,72.674,240.923,79.129z"/>
	<path d="M213.478,67.851c-6.144,5.837-14.738,6.765-19.195,2.063c-4.458-4.69-3.088-13.209,3.058-19.046
		c6.155-5.855,14.75-6.792,19.197-2.082C221.014,53.459,219.644,61.996,213.478,67.851z"/>
	<path d="M185.322,62.832c-5.668,5.377-13.634,6.202-17.771,1.829c-4.156-4.373-2.927-12.271,2.749-17.667
		c5.648-5.367,13.605-6.182,17.761-1.811C192.208,49.546,190.979,57.456,185.322,62.832z"/>
	<path d="M156.113,64.361c-5.168,4.916-12.412,5.677-16.184,1.726c-3.763-3.979-2.617-11.166,2.562-16.081
		c5.179-4.916,12.421-5.705,16.184-1.735C162.438,52.229,161.303,59.445,156.113,64.361z"/>
</g>
</svg>
