<?xml version="1.0" encoding="utf-8"?>
<!-- Generator: Adobe Illustrator 14.0.0, SVG Export Plug-In . SVG Version: 6.00 Build 43363)  -->
<!DOCTYPE svg PUBLIC "-//W3C//DTD SVG 1.0//EN" "http://www.w3.org/TR/2001/REC-SVG-20010904/DTD/svg10.dtd">
<svg version="1.0" id="Layer_1" xmlns="http://www.w3.org/2000/svg" xmlns:xlink="http://www.w3.org/1999/xlink" x="0px" y="0px"
	 width="300px" height="300px" viewBox="0 0 300 300" enable-background="new 0 0 300 300" xml:space="preserve">
<g>
	<g>
		<path d="M258.934,233.633c-2.069,2.176-4.926,3.252-6.958,5.213c-2.176,2.115-2.414,5.809-6.454,4.828
			c0.621-7.566,0.239-14.654-1.16-22.113c-1.23-6.646-1.387-14.99-4.363-21.086c-5.534-11.381-22.066-3.934-30.995-10.975
			c-8.057-6.322-13.03-19.34-7.794-28.629c4.984-8.834,14.416-18.157,24.206-21.193c13.771-4.279,24.564,1.291,33.625,11.5
			c2.631,0.311,3.766,2.391,6.097,3.012c2.475,0.67,3.969-0.525,5.631-1.1c3.226-1.172,9.096-1.291,11.833-3.371v0.573
			c2.404,4.329,4.459,4.602,4.495,10.34c0.036,4.016,0.299,8.176,0.036,12.205c-0.515,7.938-4.627,13.148-6.455,20.463
			c-1.027,4.041-2.379,6.623-3.909,10.389c-1.256,3.072-1.184,6.24-1.948,9.312c9.588-18.947,15.109-40.309,15.109-62.984
			c0-77.304-62.648-139.953-139.941-139.953c-14.679,0-28.825,2.284-42.118,6.479c4.823-0.802,9.695-1.412,14.471-2.212
			c8.75-1.47,17.069-3.646,26.022-3.383c10.352,0.287,21.84,0.98,31.485,5.044c7.244,3.049,13.293,8.093,19.233,13.113l3.562-1.028
			c-0.251,4.757-3.538,7.841-5.689,11.738c-2.283,4.184-1.865,9.682-6.108,12.551c-3.957,2.678-9.563,4.519-13.927,6.695
			c-2.785,1.399-4.327,2.75-5.617,1.075c-2.344,1.794-5.104,2.988-7.555,4.817c-3.348,2.498-5.129,9.599-9.6,9.312
			c-3.084-0.191-9.587-5.82-10.758-8.583c-2.318-5.355-2.965-9.132,2.857-11.235c0.669-2.511-3.061-7.041-3.85-9.564
			c-1.291-4.111-2.582-7.793-5.044-11.499c-2.271-3.419-4.639-6.933-8.822-8.093c-3.096-0.849-10.675,1.124-9.874-3.884
			c-3.275-0.239-8.056-0.837-11.308-0.132c-3.275,0.682-5.355,3.12-7.997,4.303c-3.908,1.721-6.682,2.546-9.491,5.392
			c-2.898,2.917-2.438,4.147-2.761,8.319c-4.614-0.812-6.826-2.522-11.416,0.096c-2.45,1.387-6.97,4.064-6.419,7.196
			c3.263,0.215,18.002-3.49,16.723,2.26c-4.913,3.215-10.328,6.479-14.847,10.22c-5.354,4.411-3.227,10.638-6.49,15.611
			c0.132,0.084,0.263,0.168,0.395,0.275c2.008,1.243,4.41,2.522,6.275,3.932c5.367,4.089,21.266,18.122,22.736,4.925
			c0.418-3.777,0.274-15.241,6.562-13.961c0.717,2.307,5.965,7.411,8.522,7.793c5.355,0.837,6.299-3.06,10.149,2.487
			c2.688,3.885,4.171,7.363,7.339,10.89c2.546,2.832,6.551,4.111,6.838,8.068c-3.228,1.937-6.886,1.961-10.735,2.2
			c-6.155,0.394-5.14,1.075-4.757,6.144c-4.626,0.359-7.555,4.422-10.34,6.98c-3.329,3.036-6.455,4.411-10.269,6.574
			c-4.937,2.822-4.937,6.694-8.068,11.142c-1.435,2.055-2.917,2.713-3.766,5.211c-0.896,2.535-0.227,6.3-3.705,6.671
			c-5.2-5.869-15.277-9.54-22.055-3.706c-8.798,7.555,4.864,14.488,9.957,18.552c6.813,5.379,10.053,13.459,19.39,14.799
			c9.909,1.445,19.005,0.369,28.245,5.283c7.914,4.244,11.081,12.193,17.942,17.477c5.559,4.303,22.485,5.762,24.11,13.244
			c1.207,5.582-7.005,17.225-9.909,21.828c-4.77,7.529-13.28,9.418-19.281,15.539c-6.156,6.264-10.208,12.516-17.356,17.93
			c-7.746,5.881-11.01,12.756-21.768,8.178c-3.311-1.412-6.443-3.324-9.526-5.141l3.944,0.549c0.921-5.51,1.506-10.793,2.713-16.279
			c1.339-6.217,5.021-10.354,5.666-16.832c0.706-7.004,0.729-10.746-4.291-16.221c-3.789-4.123-8.021-7.398-9.527-12.945
			c-1.889-6.98-1.822-10.4,1.734-16.209c3.406-5.619,2.079-8.75-1.974-13.246c-3.627-3.967-7.703-7.744-11.69-11.295
			c-4.458-3.934-11.439-4.221-16.794-6.98c-6.777-3.504-9.133-10.054-12.815-16.532c-3.143-5.546-4.506-13.651-12.072-14.153
			c-0.18,2.809-0.233,5.833,0.442,8.416c0.646,2.522,3.155,4.638,2.761,7.232c-4.147-3.252-6.658-8.189-8.869-12.839
			c-2.522-5.295-6.204-8.475-6.001-14.188c-0.143-0.263-0.18-0.573-0.299-0.86c-2.791,11.033-4.435,22.52-4.435,34.415
			c0,77.267,62.637,139.917,139.916,139.917c52.273,0,97.77-28.713,121.796-71.172C268.029,224.105,263.367,228.959,258.934,233.633
			z M225.164,86.09c7.556-2.857,2.917,8.845,10.041,9.096c0.681,1.506,1.375,2.571,2.295,3.897c-4.005,2.2-7.388,3.419-10.555,6.503
			c-0.538-2.391,0.609-4.315,0.956-6.455c-4.1,0.431-2.462-4.064-1.686-6.167c-1.697-0.526-1.924-1.757-1.613-3.491L225.164,86.09z
			 M222.929,119.452c6.371-1.912,2.295-5.379,5.296-9.623c2.605-3.658,8.761-1.435,12.372-3.813
			c4.027-2.629,5.665-8.511,11.032-9.455c6.42-1.111,17.859,11.392,20.274-1.47l1.697,2.247c0.358,3.156,3.896,3.371,5.355,5.929
			c1.96,3.419,0.837,9.229,0.824,12.982c-0.036,5.116,0.837,10.028-2.894,13.866c-5.127,5.307-6.49,4.411-10.159-0.478
			c-2.714-3.611-10.854-5.081-8.989,1.983c-6.539-0.322-4.638-6.287-8.941-8.965c-4.878-3.013-10.688,2.438-14.237,5.212
			c-5.164,4.016-22.007,11.475-20.607-0.98C214.717,120.194,217.849,120.982,222.929,119.452z M117.714,58.011
			c-1.292,2.511,0.704,3.706-0.228,6.073c-0.801,1.996-4.017,4.04-6.097,4.495c-3.693-5.021-4.722-4.423-10.423-6.646
			c-6.288-2.463-1.124-3.993-1.842-8.966c1.256-0.167,2.499-0.968,3.766-0.873c0.239-3.466,0.084-7.016,0.084-10.483l-0.574-1.697
			c4.723-0.55,10.878,4.327,12.981,7.578c1.375,2.152,1.877,3.372,4.483,4.817c2.188,1.208,5.827,1.423,5.534,4.411
			C123.009,57.843,120.164,57.198,117.714,58.011z"/>
	</g>
</g>
</svg>
