<?xml version="1.0" encoding="utf-8"?>
<!-- Generator: Adobe Illustrator 14.0.0, SVG Export Plug-In . SVG Version: 6.00 Build 43363)  -->
<!DOCTYPE svg PUBLIC "-//W3C//DTD SVG 1.0//EN" "http://www.w3.org/TR/2001/REC-SVG-20010904/DTD/svg10.dtd">
<svg version="1.0" id="Layer_1" xmlns="http://www.w3.org/2000/svg" xmlns:xlink="http://www.w3.org/1999/xlink" x="0px" y="0px"
	 width="300px" height="300px" viewBox="0 0 300 300" enable-background="new 0 0 300 300" xml:space="preserve">
<path d="M295.013,60.166c-10.652,4.7-22.155,7.923-34.151,9.31c12.266-7.34,21.72-18.967,26.162-32.832
	c-11.47,6.781-24.271,11.705-37.811,14.368c-10.832-11.593-26.275-18.799-43.385-18.799c-32.843-0.022-59.486,26.565-59.532,59.464
	c0.023,4.655,0.538,9.176,1.556,13.563C98.402,102.733,54.594,79.01,25.253,43c-5.114,8.795-8.067,19.001-8.067,29.9
	c-0.012,20.635,10.496,38.875,26.441,49.527c-9.746-0.313-18.955-3.021-26.946-7.43c0,0.246,0,0.481,0,0.761
	c-0.011,28.792,20.501,52.862,47.716,58.345c-4.991,1.321-10.312,2.082-15.689,2.082c-3.849,0-7.608-0.402-11.201-1.119
	c7.554,23.634,29.531,40.844,55.559,41.381c-20.365,15.957-46.014,25.424-73.898,25.424c-4.812,0-9.568-0.291-14.179-0.827
	c26.298,16.873,57.573,26.721,91.149,26.744c109.445,0.067,169.324-90.573,169.368-169.172c0-2.551-0.09-5.147-0.224-7.677
	C276.965,82.546,287.047,72.072,295.013,60.166z"/>
</svg>
