<?xml version="1.0" encoding="utf-8"?>
<!-- Generator: Adobe Illustrator 14.0.0, SVG Export Plug-In . SVG Version: 6.00 Build 43363)  -->
<!DOCTYPE svg PUBLIC "-//W3C//DTD SVG 1.1//EN" "http://www.w3.org/Graphics/SVG/1.1/DTD/svg11.dtd">
<svg version="1.1" id="Layer_1" xmlns="http://www.w3.org/2000/svg" xmlns:xlink="http://www.w3.org/1999/xlink" x="0px" y="0px"
	 width="300px" height="300px" viewBox="0 0 300 300" enable-background="new 0 0 300 300" xml:space="preserve">
<g>
	<g>
		<path d="M10.856,141.977h4.185v-36.703h-4.185v-3.933h12.745v3.933h-4.25v36.703h4.25v3.932H10.856V141.977z"/>
		<path d="M32.409,117.631h-4.183v-3.611h4.245v-8.812h4.25v8.812h7.989v3.611h-7.989v16.232c0,7.483,4.756,8.432,7.165,8.432
			c0.886,0,1.457-0.127,1.457-0.127v3.868c0,0-0.761,0.127-1.838,0.127c-3.677,0-11.094-1.206-11.094-11.854v-16.678H32.409z"/>
		<path d="M66.447,113.263c3.614,0,11.348,1.522,11.348,6.781v2.854h-4.058v-1.836c0-2.662-4.628-3.936-7.29-3.936
			c-6.847,0-12.362,5.136-12.362,12.869c0,7.863,5.769,12.74,12.489,12.74c6.531,0,10.271-4.5,10.271-4.5l2.03,3.235
			c0,0-4.312,5.2-12.489,5.2c-9.508,0-16.737-6.786-16.737-16.677C49.648,120.232,56.939,113.263,66.447,113.263z"/>
		<path d="M85.715,106.477c0-0.888-0.506-1.395-1.395-1.395h-2.664v-3.741h4.503c2.726,0,3.868,1.143,3.868,3.741v13.505
			c0,1.457-0.126,2.597-0.126,2.597h0.126c1.206-3.041,5.451-7.921,12.616-7.921c7.924,0,10.714,4.498,10.714,12.36v15.148
			c0,0.953,0.507,1.396,1.394,1.396h2.664v3.739h-4.501c-2.727,0-3.868-1.144-3.868-3.867v-15.277c0-5.009-0.76-9.446-6.973-9.446
			c-5.387,0-10.079,3.742-11.537,9.067c-0.382,1.267-0.507,2.724-0.507,4.246v15.277h-4.312v-39.43H85.715z"/>
		<path d="M125.267,155.355c2.788,0,4.692-2.283,5.896-5.199l1.901-4.373l-11.219-26.564c-0.507-1.143-1.079-1.456-2.22-1.456
			h-0.634v-3.741h1.963c2.855,0,3.739,0.637,4.881,3.487l8.179,19.904c0.634,1.588,1.14,3.426,1.14,3.426h0.128
			c0,0,0.445-1.838,1.079-3.426l7.861-19.904c1.079-2.854,2.028-3.487,4.946-3.487h1.963v3.741h-0.634
			c-1.142,0-1.776,0.315-2.22,1.456l-13.756,33.35c-1.648,4.058-4.88,6.653-9.13,6.653c-4.437,0-6.909-3.104-6.909-3.104l2.028-3.17
			C120.511,153.006,122.539,155.355,125.267,155.355z"/>
		<path d="M176.162,105.274h-4.117v-3.933h23.705c2.73,0,3.807,1.143,3.807,3.866v4.441h-4.121v-2.982
			c0-0.952-0.508-1.393-1.396-1.393H180.6v16.735h16.166v3.93H180.6v19.97h-4.438V105.274z"/>
		<path d="M218.949,113.263c8.812,0,13.377,6.781,13.377,14.707c0,0.759-0.127,2.155-0.127,2.155h-24.471
			c0.127,8.052,5.768,12.679,12.359,12.679c5.834,0,9.576-3.93,9.576-3.93l2.092,3.231c0,0-4.629,4.566-11.855,4.566
			c-9.447,0-16.672-6.848-16.672-16.672C203.229,119.535,210.391,113.263,218.949,113.263z M227.887,126.7
			c-0.25-6.591-4.311-9.822-9-9.822c-5.264,0-9.891,3.421-10.967,9.822H227.887z"/>
		<path d="M253.684,113.263c8.811,0,13.377,6.781,13.377,14.707c0,0.759-0.127,2.155-0.127,2.155h-24.471
			c0.131,8.052,5.771,12.679,12.359,12.679c5.834,0,9.576-3.93,9.576-3.93l2.092,3.231c0,0-4.627,4.566-11.855,4.566
			c-9.449,0-16.668-6.848-16.668-16.672C237.967,119.535,245.125,113.263,253.684,113.263z M262.621,126.7
			c-0.254-6.591-4.311-9.822-9-9.822c-5.264,0-9.891,3.421-10.971,9.822H262.621z"/>
		<path d="M276.057,117.631h-4.184v-3.611h4.25v-8.812h4.246v8.812h7.986v3.611h-7.986v16.232c0,7.483,4.754,8.432,7.164,8.432
			c0.889,0,1.459-0.127,1.459-0.127v3.868c0,0-0.762,0.127-1.842,0.127c-3.676,0-11.094-1.206-11.094-11.854V117.631
			L276.057,117.631z"/>
	</g>
	<path d="M10,80.293h4.247c1.382,0,2.171-0.693,2.171-2.173V17.002h6.319L58.182,66.47c2.369,3.454,5.629,9.083,5.629,9.083h0.197
		c0,0-0.494-5.431-0.494-9.083V23.024c0-4.246,1.778-6.024,6.024-6.024h7.305v6.123h-4.246c-1.383,0-2.17,0.69-2.17,2.173v61.12
		H64.11l-35.447-49.47c-2.468-3.357-5.726-8.985-5.726-8.985h-0.198c0,0,0.594,5.333,0.594,8.985v43.446
		c0,4.243-1.778,6.024-6.024,6.024H10V80.293z"/>
	<path d="M114.26,55.805h2.765v-0.593c0-10.368-3.752-14.021-12.836-14.021c-2.468,0-9.677,0.692-9.677,4.345v3.161h-6.418v-4.738
		c0-6.913,11.849-8.394,16.191-8.394c15.7,0,19.451,8.394,19.451,19.055v23.793c0,1.481,0.789,2.172,2.171,2.172h4.148v5.827h-6.812
		c-4.244,0-5.922-1.878-5.922-5.926c0-2.172,0.099-3.653,0.099-3.653h-0.198c0.1,0-4.048,10.76-16.488,10.76
		c-8.294,0-16.884-4.837-16.884-14.71C83.85,56.396,105.671,55.805,114.26,55.805z M101.82,81.872
		c9.48,0,15.206-9.875,15.206-18.464v-2.271h-2.864c-7.802,0-23.401,0.197-23.401,11.356C90.76,77.134,94.416,81.872,101.82,81.872z
		"/>
	<path d="M140.418,25.001c0-1.383-0.792-2.172-2.171-2.172h-4.148v-5.827h7.012c4.246,0,6.022,1.482,6.022,5.728v32.98h5.132
		c1.875,0,4.246-0.594,5.631-2.369l12.734-16.587h8.191L164.51,54.92c-2.471,3.062-3.752,3.554-3.752,3.554v0.198
		c0,0,1.479,0.689,3.062,3.652l8.98,16.092c0.891,1.681,1.881,2.173,4.547,2.173h2.664v5.826h-4.643
		c-4.936,0-6.318-0.791-8.59-4.939l-9.872-17.771c-1.088-1.974-3.458-2.172-5.235-2.172h-4.541v24.883h-6.716V25.001H140.418z"/>
	<path d="M208.736,35.566c13.725,0,20.834,10.564,20.834,22.906c0,1.184-0.191,3.357-0.191,3.357h-38.115
		c0.199,12.539,8.98,19.748,19.25,19.748c9.086,0,14.91-6.12,14.91-6.12l3.26,5.035c0,0-7.205,7.107-18.463,7.107
		c-14.711,0-25.969-10.661-25.969-25.968C184.254,45.339,195.41,35.566,208.736,35.566z M222.662,56.496
		c-0.395-10.269-6.713-15.304-14.023-15.304c-8.193,0-15.4,5.332-17.082,15.304H222.662z"/>
	<path d="M260.863,35.566c12.045,0,16.191,9.28,16.191,9.28h0.199c0,0-0.199-1.676-0.199-3.751V25.003
		c0-1.384-0.785-2.173-2.168-2.173h-4.146v-5.828h7.008c4.25,0,6.023,1.779,6.023,6.024v55.389c0,1.481,0.791,2.172,2.172,2.172
		h4.146v5.827h-6.908c-4.152,0-5.928-1.878-5.928-5.531c0-1.877,0.197-3.161,0.197-3.161h-0.197c0,0-4.049,9.873-17.078,9.873
		c-13.33,0-21.625-10.661-21.625-26.067C238.553,45.832,247.83,35.566,260.863,35.566z M277.256,61.531
		c0-10.07-5.135-19.945-15.799-19.945c-8.785,0-15.996,7.405-15.996,19.945c0,12.244,6.418,20.044,15.701,20.044
		C269.455,81.575,277.256,75.652,277.256,61.531z"/>
	
		<text transform="matrix(1 0 0 1 26.877 49.2969)" opacity="0" enable-background="new    " font-family="'MyriadPro-Regular'" font-size="28.9522">a</text>
</g>
</svg>
