<?xml version="1.0" encoding="utf-8"?>
<!-- Generator: Adobe Illustrator 14.0.0, SVG Export Plug-In . SVG Version: 6.00 Build 43363)  -->
<!DOCTYPE svg PUBLIC "-//W3C//DTD SVG 1.1//EN" "http://www.w3.org/Graphics/SVG/1.1/DTD/svg11.dtd">
<svg version="1.1" id="Layer_1" xmlns="http://www.w3.org/2000/svg" xmlns:xlink="http://www.w3.org/1999/xlink" x="0px" y="0px"
	 width="16px" height="28px" viewBox="0 0 16 28" enable-background="new 0 0 16 28" xml:space="preserve">
<path d="M16,10c0,1.135-0.172,2.068-0.516,2.797L9.796,24.891c-0.167,0.344-0.414,0.615-0.741,0.812C8.727,25.9,8.375,26,7.999,26
	s-0.727-0.098-1.055-0.297c-0.328-0.199-0.57-0.47-0.727-0.812L0.514,12.797C0.17,12.068-0.002,11.135-0.002,10
	c0-2.208,0.781-4.094,2.344-5.656C3.905,2.782,5.79,2,7.998,2s4.094,0.781,5.656,2.344c1.562,1.563,2.344,3.449,2.344,5.656H16z"/>
</svg>
