<?xml version="1.0" encoding="utf-8"?>
<!-- Generator: Adobe Illustrator 14.0.0, SVG Export Plug-In . SVG Version: 6.00 Build 43363)  -->
<!DOCTYPE svg PUBLIC "-//W3C//DTD SVG 1.1//EN" "http://www.w3.org/Graphics/SVG/1.1/DTD/svg11.dtd">
<svg version="1.1" id="Layer_1" xmlns="http://www.w3.org/2000/svg" xmlns:xlink="http://www.w3.org/1999/xlink" x="0px" y="0px"
	 width="16px" height="28px" viewBox="0 0 16 28" enable-background="new 0 0 16 28" xml:space="preserve">
<path fill="#F16623" d="M15.179,15.072h-0.006L8.043,26L0.86,15.061h0.006C0.316,13.974,0,12.748,0,11.446
	c0-4.431,3.593-8.024,8.025-8.024c4.432,0,8.026,3.593,8.026,8.024C16.051,12.752,15.733,13.982,15.179,15.072z M7.936,15.058
	c1.991,0,3.609-1.619,3.609-3.611c0-1.99-1.618-3.609-3.609-3.609c-1.99,0-3.609,1.619-3.609,3.609
	C4.327,13.438,5.946,15.058,7.936,15.058L7.936,15.058z M7.936,9.517c1.065,0,1.93,0.866,1.93,1.93c0,1.065-0.865,1.931-1.93,1.931
	c-1.064,0-1.93-0.866-1.93-1.931C6.006,10.383,6.872,9.517,7.936,9.517L7.936,9.517z"/>
</svg>
