<?xml version="1.0" encoding="utf-8"?>
<!-- Generator: Adobe Illustrator 14.0.0, SVG Export Plug-In . SVG Version: 6.00 Build 43363)  -->
<!DOCTYPE svg PUBLIC "-//W3C//DTD SVG 1.1//EN" "http://www.w3.org/Graphics/SVG/1.1/DTD/svg11.dtd">
<svg version="1.1" id="Layer_1" xmlns="http://www.w3.org/2000/svg" xmlns:xlink="http://www.w3.org/1999/xlink" x="0px" y="0px"
	 width="300px" height="300px" viewBox="0 0 300 300" enable-background="new 0 0 300 300" xml:space="preserve">
<path d="M37.041,249.707H51.75c4.788,0,7.519-2.4,7.519-7.525V30.505h21.887l122.76,171.327
	c8.205,11.962,19.495,31.458,19.495,31.458h0.685c0,0-1.713-18.81-1.713-31.458V51.361c0-14.706,6.156-20.863,20.861-20.863h25.303
	v21.206h-14.705c-4.79,0-7.516,2.39-7.516,7.526v211.684h-21.881L101.679,99.577C93.132,87.952,81.847,68.46,81.847,68.46h-0.685
	c0,0,2.057,18.471,2.057,31.117v150.475c0,14.692-6.158,20.862-20.864,20.862H37.041V249.707z"/>
</svg>
