<?xml version="1.0" encoding="iso-8859-1"?>
<!-- Generator: Adobe Illustrator 14.0.0, SVG Export Plug-In . SVG Version: 6.00 Build 43363)  -->
<!DOCTYPE svg PUBLIC "-//W3C//DTD SVG 1.0//EN" "http://www.w3.org/TR/2001/REC-SVG-20010904/DTD/svg10.dtd">
<svg version="1.0" id="Layer_1" xmlns="http://www.w3.org/2000/svg" xmlns:xlink="http://www.w3.org/1999/xlink" x="0px" y="0px"
	 width="22px" height="28px" viewBox="0 0 22 28" style="enable-background:new 0 0 22 28;" xml:space="preserve">
<path d="M21.5,2.5c0.459,0.542,0.521,1.312,0.188,2.312S20.791,6.708,20,7.5l-2.516,2.516l2.5,10.875
	c0.052,0.198-0.011,0.37-0.188,0.517l-2,1.5c-0.072,0.062-0.172,0.094-0.297,0.094c-0.042,0-0.078-0.005-0.109-0.017
	c-0.156-0.031-0.266-0.114-0.328-0.25l-4.358-7.938l-4.047,4.047l0.828,3.031c0.052,0.178,0.01,0.339-0.125,0.484l-1.5,1.5
	C7.766,23.953,7.646,24,7.501,24H7.47c-0.156-0.021-0.281-0.088-0.375-0.203l-2.953-3.938l-3.938-2.953
	c-0.115-0.072-0.183-0.192-0.203-0.359c-0.011-0.135,0.036-0.266,0.141-0.391l1.5-1.516c0.094-0.095,0.213-0.142,0.359-0.142
	c0.062,0,0.104,0.005,0.125,0.017l3.031,0.827l4.047-4.047L1.266,6.937C1.12,6.854,1.031,6.729,1,6.562
	C0.979,6.396,1.026,6.255,1.141,6.14l2-2C3.287,4.005,3.443,3.963,3.61,4.015l10.391,2.484l2.5-2.5
	c0.792-0.792,1.688-1.354,2.688-1.687S20.959,2.042,21.5,2.5L21.5,2.5z"/>
</svg>
