<?xml version="1.0" encoding="utf-8"?>
<!-- Generator: Adobe Illustrator 14.0.0, SVG Export Plug-In . SVG Version: 6.00 Build 43363)  -->
<!DOCTYPE svg PUBLIC "-//W3C//DTD SVG 1.1//EN" "http://www.w3.org/Graphics/SVG/1.1/DTD/svg11.dtd">
<svg version="1.1" id="Layer_1" xmlns="http://www.w3.org/2000/svg" xmlns:xlink="http://www.w3.org/1999/xlink" x="0px" y="0px"
	 width="300px" height="300px" viewBox="0 0 300 300" enable-background="new 0 0 300 300" xml:space="preserve">
<path d="M277.014,68.206c-9.524,4.203-19.811,7.084-30.536,8.325c10.968-6.563,19.421-16.959,23.393-29.356
	c-10.255,6.063-21.701,10.466-33.808,12.847c-9.686-10.366-23.493-16.809-38.792-16.809c-29.366-0.02-53.188,23.752-53.229,53.168
	c0.021,4.162,0.481,8.205,1.392,12.127c-44.215-2.242-83.384-23.453-109.619-55.65c-4.572,7.864-7.212,16.989-7.212,26.734
	c-0.011,18.45,9.384,34.759,23.641,44.283c-8.714-0.279-16.948-2.701-24.093-6.643c0,0.22,0,0.43,0,0.68
	c-0.01,25.743,18.33,47.266,42.664,52.168c-4.462,1.182-9.22,1.862-14.028,1.862c-3.442,0-6.802-0.36-10.015-1.001
	c6.754,21.131,26.404,36.519,49.677,36.999c-18.209,14.268-41.142,22.732-66.074,22.732c-4.303,0-8.555-0.26-12.678-0.739
	c23.514,15.086,51.478,23.892,81.499,23.912c97.856,0.061,151.396-80.983,151.435-151.26c0-2.281-0.079-4.602-0.199-6.865
	C260.876,88.217,269.89,78.852,277.014,68.206z"/>
<path d="M276.014,68.206c-9.524,4.203-19.811,7.084-30.536,8.325c10.968-6.563,19.421-16.959,23.393-29.356
	c-10.255,6.063-21.701,10.466-33.808,12.847c-9.686-10.366-23.493-16.809-38.792-16.809c-29.366-0.02-53.188,23.752-53.229,53.168
	c0.021,4.162,0.481,8.205,1.392,12.127c-44.215-2.242-83.384-23.453-109.619-55.65c-4.572,7.864-7.212,16.989-7.212,26.734
	c-0.011,18.45,9.384,34.759,23.641,44.283c-8.714-0.279-16.948-2.701-24.093-6.643c0,0.22,0,0.43,0,0.68
	c-0.01,25.743,18.33,47.266,42.664,52.168c-4.462,1.182-9.22,1.862-14.028,1.862c-3.442,0-6.802-0.36-10.015-1.001
	c6.754,21.131,26.404,36.519,49.677,36.999c-18.209,14.268-41.142,22.732-66.074,22.732c-4.303,0-8.555-0.26-12.678-0.739
	c23.514,15.086,51.478,23.892,81.499,23.912c97.856,0.061,151.396-80.983,151.435-151.26c0-2.281-0.079-4.602-0.199-6.865
	C259.876,88.217,268.89,78.852,276.014,68.206z"/>
<path d="M277.014,68.206c-9.524,4.203-19.811,7.084-30.536,8.325c10.968-6.563,19.421-16.959,23.393-29.356
	c-10.255,6.063-21.701,10.466-33.808,12.847c-9.686-10.366-23.493-16.809-38.792-16.809c-29.366-0.02-53.188,23.752-53.229,53.168
	c0.021,4.162,0.481,8.205,1.392,12.127c-44.215-2.242-83.384-23.453-109.619-55.65c-4.572,7.864-7.212,16.989-7.212,26.734
	c-0.011,18.45,9.384,34.759,23.641,44.283c-8.714-0.279-16.948-2.701-24.093-6.643c0,0.22,0,0.43,0,0.68
	c-0.01,25.743,18.33,47.266,42.664,52.168c-4.462,1.182-9.22,1.862-14.028,1.862c-3.442,0-6.802-0.36-10.015-1.001
	c6.754,21.131,26.404,36.519,49.677,36.999c-18.209,14.268-41.142,22.732-66.074,22.732c-4.303,0-8.555-0.26-12.678-0.739
	c23.514,15.086,51.478,23.892,81.499,23.912c97.856,0.061,151.396-80.983,151.435-151.26c0-2.281-0.079-4.602-0.199-6.865
	C260.876,88.217,269.89,78.852,277.014,68.206z"/>
</svg>
