<?xml version="1.0" encoding="utf-8"?>
<!-- Generator: Adobe Illustrator 14.0.0, SVG Export Plug-In . SVG Version: 6.00 Build 43363)  -->
<!DOCTYPE svg PUBLIC "-//W3C//DTD SVG 1.1//EN" "http://www.w3.org/Graphics/SVG/1.1/DTD/svg11.dtd">
<svg version="1.1" id="Layer_1" xmlns="http://www.w3.org/2000/svg" xmlns:xlink="http://www.w3.org/1999/xlink" x="0px" y="0px"
	 width="128.2px" height="108.576px" viewBox="0 0 128.2 108.576" enable-background="new 0 0 128.2 108.576" xml:space="preserve">
<g>
	<g>
		<path d="M68.146,56.194c0.333-3.919,1.274-6.373,3.644-8.196c2.342-1.805,5.866-2.367,8.047-4.25
			c1.147-0.992,1.385-2.381,2.429-3.492c-0.728,2.875-0.978,5.088-1.974,7.135c-0.758,1.557-2.006,3.49-3.34,4.555
			C74.517,53.888,71.04,54.378,68.146,56.194z M70.726,54.07c2.047-0.586,3.231-2.031,5.01-2.885
			c-0.964,0.959-2.286,1.559-3.188,2.582c4.951-1.578,7.447-5.609,8.652-10.932c-3.678,4.115-11.369,4.217-12.447,10.932
			c1.103-1.734,2.283-4.193,4.1-4.707c-1.408,1.174-2.995,2.977-3.188,4.857c0.842-1.182,2.069-2.785,3.037-3.34
			c-0.688,0.916-1.5,1.65-1.521,2.582c1.233-0.84,2.166-1.984,3.491-2.732C73.319,51.603,72.306,53.121,70.726,54.07z"/>
		<path fill="#FEF5BA" d="M74.672,50.427c-1.325,0.748-2.258,1.893-3.491,2.732c0.021-0.932,0.833-1.666,1.521-2.582
			c-0.968,0.555-2.195,2.158-3.037,3.34c0.192-1.881,1.779-3.684,3.188-4.857c-1.814,0.514-2.997,2.973-4.1,4.707
			c1.078-6.715,8.771-6.816,12.447-10.932c-1.205,5.322-3.701,9.354-8.652,10.932c0.9-1.023,2.225-1.623,3.188-2.582
			c-1.776,0.854-2.963,2.299-5.01,2.885C72.306,53.121,73.319,51.603,74.672,50.427z"/>
	</g>
	<g>
		<path d="M106.452,14.181c-0.332,3.921-1.275,6.373-3.643,8.197c-2.342,1.805-5.867,2.368-8.047,4.251
			c-1.146,0.992-1.385,2.38-2.428,3.492c0.727-2.875,0.978-5.089,1.973-7.136c0.758-1.557,2.006-3.489,3.34-4.553
			C100.083,16.488,103.558,15.998,106.452,14.181z M103.872,16.305c-2.047,0.586-3.231,2.031-5.01,2.885
			c0.965-0.958,2.287-1.559,3.188-2.58c-4.951,1.576-7.446,5.608-8.652,10.93c3.678-4.114,11.37-4.215,12.448-10.93
			c-1.103,1.732-2.284,4.192-4.099,4.706c1.407-1.173,2.994-2.976,3.188-4.858c-0.842,1.184-2.07,2.787-3.036,3.34
			c0.687-0.914,1.499-1.65,1.519-2.58c-1.233,0.84-2.166,1.983-3.492,2.732C101.278,18.772,102.292,17.256,103.872,16.305z"/>
		<path fill="#FEF5BA" d="M99.924,19.949c1.326-0.749,2.259-1.893,3.492-2.732c-0.02,0.93-0.832,1.666-1.519,2.58
			c0.966-0.553,2.194-2.156,3.036-3.34c-0.193,1.883-1.779,3.686-3.188,4.858c1.813-0.514,2.996-2.974,4.099-4.706
			c-1.078,6.715-8.771,6.815-12.448,10.93c1.206-5.321,3.701-9.354,8.652-10.93c-0.9,1.021-2.223,1.622-3.188,2.58
			c1.777-0.854,2.963-2.299,5.01-2.885C102.292,17.256,101.278,18.772,99.924,19.949z"/>
	</g>
	<g>
		<path d="M97.435,68.724c0.188,2.853-0.22,4.713-1.72,6.281c-1.483,1.551-3.952,2.34-5.311,3.928
			c-0.716,0.838-0.734,1.859-1.361,2.771c0.207-2.143,0.146-3.758,0.638-5.336c0.373-1.199,1.06-2.723,1.899-3.633
			C93.116,71.076,95.556,70.345,97.435,68.724z M95.815,70.531c-1.404,0.645-2.098,1.811-3.281,2.616
			c0.588-0.793,1.473-1.366,2.008-2.198c-3.383,1.672-4.731,4.838-5.018,8.786c2.189-3.354,7.699-4.266,7.74-9.2
			c-0.602,1.362-1.182,3.258-2.428,3.823c0.881-0.996,1.824-2.463,1.758-3.834c-0.477,0.941-1.182,2.226-1.814,2.729
			c0.393-0.731,0.895-1.351,0.807-2.021c-0.793,0.738-1.338,1.662-2.207,2.345C94.222,72.585,94.784,71.386,95.815,70.531z"/>
		<path fill="#FEF5BA" d="M93.379,73.578c0.869-0.683,1.414-1.604,2.207-2.345c0.088,0.67-0.414,1.287-0.807,2.021
			c0.633-0.504,1.34-1.787,1.814-2.729c0.066,1.371-0.877,2.838-1.758,3.834c1.246-0.565,1.826-2.461,2.428-3.823
			c-0.041,4.937-5.551,5.848-7.74,9.2c0.285-3.948,1.635-7.114,5.018-8.786c-0.535,0.832-1.42,1.405-2.008,2.198
			c1.184-0.807,1.877-1.973,3.281-2.616C94.784,71.386,94.222,72.585,93.379,73.578z"/>
	</g>
	<g>
		<path d="M118.476,13.609c-0.188-2.85,0.219-4.713,1.719-6.28c1.484-1.55,3.953-2.339,5.312-3.929
			c0.715-0.837,0.734-1.859,1.361-2.77c-0.207,2.142-0.146,3.758-0.638,5.335c-0.373,1.2-1.06,2.724-1.899,3.632
			C122.795,11.258,120.354,11.99,118.476,13.609z M120.095,11.803c1.403-0.643,2.098-1.81,3.28-2.617
			c-0.588,0.793-1.473,1.369-2.008,2.201c3.383-1.672,4.732-4.838,5.019-8.789c-2.191,3.355-7.699,4.267-7.74,9.203
			c0.603-1.364,1.183-3.258,2.429-3.824c-0.884,0.995-1.824,2.462-1.759,3.834c0.476-0.941,1.183-2.227,1.813-2.729
			c-0.393,0.731-0.895,1.348-0.808,2.018c0.794-0.737,1.339-1.66,2.208-2.342C121.688,9.75,121.125,10.949,120.095,11.803z"/>
		<path fill="#FEF5BA" d="M122.53,8.758c-0.869,0.682-1.414,1.604-2.208,2.342c-0.087-0.67,0.415-1.286,0.808-2.018
			c-0.633,0.502-1.34,1.787-1.813,2.729c-0.065-1.372,0.875-2.839,1.759-3.834c-1.246,0.566-1.826,2.46-2.429,3.824
			c0.041-4.937,5.549-5.848,7.74-9.203c-0.285,3.951-1.636,7.117-5.019,8.789c0.535-0.832,1.42-1.408,2.008-2.201
			c-1.184,0.808-1.877,1.975-3.28,2.617C121.125,10.949,121.688,9.75,122.53,8.758z"/>
	</g>
	<g>
		<path d="M18.977,48.986c-2.46-2.709-3.535-4.902-3.28-7.67c0.253-2.738,2.1-5.496,2.196-8.172c0.05-1.412-0.746-2.451-0.842-3.865
			c1.498,2.314,2.848,3.887,3.613,5.859c0.581,1.502,1.107,3.576,0.989,5.158C21.436,43.185,19.571,45.863,18.977,48.986z
			 M19.163,45.884c0.895-1.766,0.661-3.488,1.205-5.24c0.042,1.264-0.386,2.545-0.259,3.807c2.06-4.373,0.891-8.625-1.972-12.814
			c0.476,5.111-4.323,10.416-0.43,15.4c-0.484-1.848-1.411-4.211-0.613-5.771c-0.091,1.701,0.133,3.924,1.292,5.246
			c-0.273-1.322-0.588-3.174-0.354-4.184c0.189,1.047,0.176,2.066,0.798,2.67c0.208-1.373,0.019-2.732,0.348-4.109
			C19.123,42.554,19.515,44.205,19.163,45.884z"/>
		<path fill="#FEF5BA" d="M19.177,40.888c-0.329,1.377-0.14,2.736-0.348,4.109c-0.622-0.604-0.608-1.623-0.798-2.67
			c-0.234,1.01,0.081,2.861,0.354,4.184c-1.16-1.322-1.384-3.545-1.292-5.246c-0.798,1.561,0.129,3.924,0.613,5.771
			c-3.893-4.984,0.906-10.289,0.43-15.4c2.863,4.189,4.032,8.441,1.972,12.814c-0.127-1.262,0.302-2.543,0.259-3.807
			c-0.544,1.752-0.31,3.475-1.205,5.24C19.515,44.205,19.123,42.554,19.177,40.888z"/>
	</g>
	<g>
		<path fill="#FEF5BA" d="M67.528,88.229c-0.055-0.137,0.125-0.182,0.219-0.26c-0.238,0.199,0.099,0.553,0.103,0.619
			c0.058,1.465-0.707,3.113,0.787,5.281c-0.62-1.865-0.552-3.455-0.528-5.062c0.475,1.019,0.536,2.154,1.023,3.525
			c0.322-0.91-0.629-2.328-0.227-3.209c0.193,1.461,0.736,2.732,1.482,3.824c-0.637-2.18-1.309-4.371-1.807-6.494
			c1.188,2.154,1.637,4.711,3.063,7.109c-0.459-1.883-1.485-4.06-2.024-6.234c1.893,2.555,2.729,8.471,5.246,11.791
			c-1.818-0.943-5.066-0.973-6.546-3.297C66.647,93.192,66.668,90.417,67.528,88.229z"/>
		<path d="M67.68,84.362c0.208-0.135,0.297,0.029,0.479-0.041c3.728,4.734,4.088,11.306,7.545,15.595
			c-2.342-1.345-6.004-1.151-7.74-3.771c-2.642-3.98-1.053-7.504-0.143-10.687C67.622,85.033,67.706,84.72,67.68,84.362z
			 M68.321,95.824c1.479,2.323,4.727,2.354,6.545,3.297c-2.516-3.32-3.354-9.236-5.246-11.791c0.539,2.176,1.566,4.353,2.025,6.233
			c-1.428-2.397-1.875-4.955-3.064-7.108c0.498,2.123,1.17,4.313,1.808,6.494c-0.746-1.093-1.289-2.363-1.482-3.824
			c-0.401,0.881,0.55,2.299,0.228,3.209c-0.488-1.371-0.551-2.508-1.024-3.524c-0.022,1.606-0.092,3.196,0.528,5.062
			c-1.494-2.168-0.729-3.815-0.787-5.281c-0.004-0.065-0.34-0.42-0.102-0.618c-0.095,0.077-0.273,0.122-0.22,0.26
			C66.668,90.417,66.647,93.192,68.321,95.824z"/>
	</g>
	<g>
		<path fill="#FEF5BA" d="M111.636,12.527c0.055,0.138-0.124,0.182-0.22,0.26c0.238-0.197-0.098-0.552-0.101-0.617
			c-0.06-1.465,0.706-3.115-0.788-5.281c0.62,1.864,0.551,3.454,0.528,5.062c-0.476-1.02-0.536-2.155-1.024-3.526
			c-0.322,0.911,0.629,2.329,0.227,3.208c-0.192-1.459-0.735-2.731-1.481-3.823c0.638,2.179,1.31,4.371,1.808,6.495
			c-1.189-2.155-1.638-4.712-3.064-7.11c0.459,1.884,1.486,4.058,2.025,6.234c-1.894-2.554-2.73-8.47-5.246-11.79
			c1.818,0.942,5.066,0.972,6.545,3.297C112.517,7.566,112.495,10.342,111.636,12.527z"/>
		<path d="M111.484,16.395c-0.208,0.137-0.297-0.027-0.479,0.041c-3.727-4.734-4.086-11.305-7.545-15.592
			c2.343,1.344,6.004,1.152,7.742,3.771c2.641,3.979,1.053,7.503,0.141,10.684C111.543,15.726,111.459,16.039,111.484,16.395z
			 M110.842,4.936c-1.479-2.325-4.727-2.354-6.545-3.297c2.517,3.32,3.354,9.236,5.246,11.79c-0.537-2.177-1.565-4.351-2.024-6.234
			c1.428,2.398,1.875,4.955,3.063,7.11c-0.498-2.124-1.17-4.316-1.807-6.495c0.746,1.092,1.289,2.364,1.482,3.823
			c0.402-0.879-0.549-2.297-0.227-3.208c0.487,1.371,0.549,2.507,1.023,3.526c0.021-1.608,0.092-3.198-0.528-5.062
			c1.494,2.166,0.729,3.816,0.788,5.281c0.003,0.065,0.339,0.42,0.102,0.617c0.095-0.078,0.272-0.122,0.219-0.26
			C112.495,10.342,112.517,7.566,110.842,4.936z"/>
	</g>
	<g>
		<path d="M71.026,64.781c7.074,1.26,7.73-7.515,14.574-6.681c2.191,0.267,3.723,1.822,4.555,3.795
			c-0.08,0.527-0.818,0.398-1.215,0.607c-1.914,2.814-3.934,4.996-8.35,4.555c-1.574-0.158-3.367-0.66-5.01-0.912
			C73.918,65.894,71.978,65.994,71.026,64.781z M88.788,61.289c0.082-0.537-0.537-0.373-0.455-0.91
			c0.447,0.067,1.019,1.429,1.215,0.761c-1.026-1.33-2.146-2.49-3.946-2.734c-5.849-0.789-6.529,4.928-10.172,6.225
			c-1.003,0.357-2.128,0.037-3.188,0.607c4.918,0.486,12.305,2.99,14.422-1.67c-1.599,0.578-3.299,1.863-5.01,1.822
			c2.094-0.539,3.938-1.324,5.01-2.886c0.305-0.062,1.186-0.315,0.76-0.606c-1.506,1.024-3.625,2.246-5.77,2.125
			c1.768-0.357,3.543-0.707,4.402-1.974c-0.881-0.018-1.771,0.755-2.58,0.304c1.4-0.166,2.594-0.541,3.643-1.062
			c-1.213-0.73-3.445-0.555-4.705-0.455c1.605-0.564,3.785-0.236,5.16,0.305c-0.514-1.156-2.052-1.289-3.188-1.822
			C86.372,59.457,87.474,60.478,88.788,61.289z"/>
		<path fill="#FEF5BA" d="M84.386,59.315c1.136,0.533,2.674,0.666,3.188,1.822c-1.375-0.541-3.556-0.869-5.162-0.305
			c1.262-0.1,3.494-0.275,4.707,0.455c-1.05,0.521-2.242,0.896-3.644,1.062c0.81,0.45,1.698-0.32,2.58-0.304
			c-0.859,1.267-2.636,1.615-4.402,1.974c2.146,0.121,4.263-1.101,5.771-2.125c0.425,0.291-0.457,0.545-0.76,0.606
			c-1.072,1.562-2.918,2.347-5.011,2.886c1.712,0.041,3.411-1.244,5.011-1.822c-2.117,4.66-9.504,2.156-14.422,1.67
			c1.061-0.57,2.186-0.25,3.188-0.607c3.643-1.297,4.324-7.014,10.172-6.225c1.802,0.244,2.92,1.404,3.947,2.734
			c-0.197,0.668-0.768-0.691-1.215-0.761c-0.082,0.537,0.537,0.373,0.455,0.91C87.474,60.478,86.372,59.457,84.386,59.315z"/>
	</g>
	<g>
		<path d="M127.272,18.858c-7.075-1.26-7.73,7.513-14.574,6.68c-2.191-0.267-3.723-1.821-4.555-3.795
			c0.08-0.528,0.818-0.397,1.215-0.608c1.914-2.812,3.934-4.995,8.35-4.553c1.574,0.156,3.367,0.659,5.01,0.91
			C124.379,17.745,126.321,17.645,127.272,18.858z M109.511,22.35c-0.082,0.538,0.536,0.373,0.454,0.911
			c-0.448-0.068-1.019-1.427-1.215-0.759c1.026,1.33,2.146,2.489,3.947,2.732c5.848,0.789,6.529-4.926,10.172-6.225
			c1.002-0.357,2.127-0.036,3.188-0.606c-4.919-0.485-12.306-2.991-14.422,1.669c1.598-0.578,3.299-1.861,5.01-1.821
			c-2.094,0.538-3.938,1.324-5.01,2.884c-0.306,0.062-1.187,0.317-0.761,0.608c1.506-1.025,3.625-2.246,5.771-2.126
			c-1.769,0.359-3.543,0.709-4.401,1.974c0.881,0.017,1.77-0.755,2.58-0.304c-1.402,0.167-2.596,0.543-3.644,1.062
			c1.213,0.732,3.444,0.556,4.705,0.456c-1.604,0.563-3.786,0.235-5.16-0.304c0.515,1.155,2.051,1.287,3.188,1.822
			C111.926,24.184,110.825,23.161,109.511,22.35z"/>
		<path fill="#FEF5BA" d="M113.913,24.324c-1.137-0.535-2.674-0.667-3.188-1.822c1.374,0.539,3.555,0.867,5.16,0.304
			c-1.26,0.1-3.492,0.276-4.705-0.456c1.048-0.52,2.24-0.896,3.643-1.062c-0.811-0.451-1.699,0.32-2.58,0.304
			c0.859-1.265,2.635-1.614,4.402-1.974c-2.146-0.12-4.264,1.101-5.77,2.126c-0.426-0.291,0.455-0.546,0.76-0.608
			c1.07-1.56,2.916-2.346,5.01-2.884c-1.711-0.04-3.412,1.243-5.01,1.821c2.115-4.66,9.503-2.154,14.422-1.669
			c-1.061,0.57-2.186,0.249-3.188,0.606c-3.644,1.299-4.324,7.014-10.173,6.225c-1.803-0.243-2.921-1.402-3.946-2.732
			c0.195-0.668,0.766,0.69,1.215,0.759c0.082-0.538-0.537-0.373-0.455-0.911C110.825,23.161,111.926,24.184,113.913,24.324z"/>
	</g>
	<g>
		<path d="M14.196,43.009c-3.854-0.795-6.177-2.021-7.708-4.59c-1.514-2.539-1.656-6.105-3.267-8.492
			c-0.849-1.258-2.2-1.656-3.179-2.826c2.768,1.062,4.937,1.574,6.851,2.804c1.456,0.938,3.227,2.406,4.126,3.857
			C12.66,36.41,12.734,39.919,14.196,43.009z M12.392,40.195c-0.339-2.102-1.633-3.449-2.27-5.316
			c0.837,1.072,1.276,2.457,2.184,3.473c-0.978-5.104-4.686-8.061-9.827-9.889c3.65,4.141,2.838,11.789,9.377,13.656
			c-1.59-1.299-3.892-2.766-4.187-4.629c0.998,1.537,2.599,3.328,4.445,3.742c-1.075-0.977-2.521-2.385-2.956-3.41
			c0.827,0.789,1.461,1.684,2.383,1.812c-0.688-1.324-1.713-2.385-2.3-3.791C10.25,37.328,11.635,38.513,12.392,40.195z"/>
		<path fill="#FEF5BA" d="M9.242,35.843c0.586,1.406,1.611,2.467,2.3,3.791c-0.922-0.129-1.556-1.023-2.383-1.812
			c0.435,1.025,1.881,2.434,2.956,3.41c-1.846-0.414-3.447-2.205-4.445-3.742c0.295,1.863,2.597,3.33,4.187,4.629
			c-6.54-1.867-5.728-9.516-9.377-13.656c5.141,1.828,8.849,4.785,9.827,9.889c-0.908-1.016-1.347-2.4-2.184-3.473
			c0.637,1.867,1.931,3.215,2.27,5.316C11.635,38.513,10.25,37.328,9.242,35.843z"/>
	</g>
	<g>
		<path d="M13.555,18.27c2.853,0.15,4.653,0.776,6.032,2.452c1.364,1.657,1.854,4.201,3.271,5.737
			c0.748,0.811,1.76,0.949,2.59,1.681c-2.102-0.46-3.714-0.591-5.222-1.265c-1.147-0.514-2.579-1.375-3.382-2.316
			C15.377,22.838,14.941,20.327,13.555,18.27z M15.157,20.092c0.473,1.471,1.549,2.297,2.209,3.567
			c-0.718-0.677-1.184-1.624-1.947-2.253c1.259,3.556,4.243,5.271,8.132,6.023c-3.071-2.573-3.323-8.151-8.22-8.777
			c1.282,0.76,3.095,1.561,3.509,2.865c-0.884-0.995-2.229-2.104-3.599-2.2c0.879,0.583,2.071,1.437,2.494,2.125
			c-0.68-0.477-1.232-1.049-1.908-1.042c0.639,0.877,1.49,1.525,2.064,2.47C17.007,21.916,15.883,21.217,15.157,20.092z"/>
		<path fill="#FEF5BA" d="M17.892,22.87c-0.574-0.944-1.425-1.593-2.064-2.47c0.676-0.007,1.228,0.565,1.908,1.042
			c-0.423-0.688-1.615-1.542-2.494-2.125c1.37,0.097,2.715,1.205,3.599,2.2c-0.415-1.305-2.227-2.105-3.509-2.865
			c4.896,0.626,5.148,6.204,8.22,8.777c-3.889-0.752-6.873-2.468-8.132-6.023c0.763,0.629,1.229,1.576,1.947,2.253
			c-0.661-1.271-1.737-2.097-2.209-3.567C15.883,21.217,17.007,21.916,17.892,22.87z"/>
	</g>
	<g>
		<path fill="#FEF5BA" d="M8.517,11.883c-0.143,0.039-0.166-0.145-0.232-0.248c0.168,0.26,0.56-0.031,0.625-0.027
			c1.461,0.116,3.009,1.07,5.337-0.155c-1.925,0.395-3.495,0.138-5.089-0.076c1.068-0.351,2.203-0.276,3.623-0.599
			c-0.866-0.428-2.387,0.349-3.213-0.156c1.472-0.018,2.8-0.407,3.973-1.019c-2.239,0.375-4.495,0.782-6.663,1.024
			c2.281-0.926,4.873-1.066,7.423-2.199C12.375,8.66,10.095,9.423,7.87,9.7c2.761-1.577,8.734-1.708,12.329-3.812
			c-1.151,1.692-1.565,4.915-4.049,6.107C13.339,13.346,10.586,12.996,8.517,11.883z"/>
		<path d="M4.694,11.274c-0.111-0.224,0.064-0.292,0.016-0.48c5.143-3.14,11.71-2.719,16.377-5.644
			c-1.612,2.165-1.856,5.824-4.663,7.239C12.16,14.539,8.85,12.546,5.8,11.264C5.352,11.412,5.052,11.291,4.694,11.274z
			 M16.15,11.996c2.483-1.192,2.898-4.415,4.049-6.107C16.604,7.992,10.631,8.123,7.87,9.7c2.225-0.277,4.505-1.04,6.431-1.272
			c-2.551,1.133-5.143,1.273-7.423,2.199c2.168-0.242,4.424-0.649,6.663-1.024c-1.172,0.611-2.5,1.001-3.973,1.019
			c0.826,0.505,2.347-0.271,3.213,0.156c-1.419,0.322-2.555,0.248-3.623,0.599c1.594,0.214,3.165,0.471,5.089,0.076
			c-2.328,1.226-3.876,0.271-5.337,0.155c-0.065-0.004-0.457,0.287-0.625,0.027c0.066,0.104,0.089,0.287,0.232,0.248
			C10.586,12.996,13.339,13.346,16.15,11.996z"/>
	</g>
	<g>
		<path d="M7.3,26.382c2.09-6.876-6.543-8.567-4.905-15.263c0.524-2.145,2.25-3.481,4.308-4.072
			c0.516,0.142,0.298,0.859,0.459,1.277c2.566,2.234,4.494,4.499,3.532,8.831c-0.343,1.544-1.054,3.265-1.498,4.866
			C8.749,23.641,8.619,25.582,7.3,26.382z M5.939,8.332C5.415,8.187,5.504,8.82,4.98,8.676C5.102,8.238,6.518,7.834,5.878,7.56
			c-1.442,0.861-2.727,1.835-3.182,3.596c-1.477,5.713,4.118,7.067,4.975,10.837c0.236,1.038-0.215,2.117,0.225,3.237
			c1.065-4.826,4.428-11.864,0.052-14.518c0.385,1.655,1.458,3.495,1.215,5.19c-0.287-2.143-0.848-4.068-2.271-5.316
			c-0.026-0.31-0.174-1.215-0.514-0.826c0.84,1.617,1.801,3.864,1.428,5.98c-0.147-1.797-0.284-3.602-1.438-4.605
			c-0.122,0.873,0.539,1.848-0.005,2.599c0.001-1.412-0.231-2.642-0.624-3.743c-0.87,1.117-0.959,3.355-1.01,4.618
			C4.361,12.947,4.945,10.82,5.645,9.52c-1.208,0.373-1.522,1.885-2.187,2.949C3.832,10.514,4.978,9.541,5.939,8.332z"/>
		<path fill="#FEF5BA" d="M3.458,12.469c0.665-1.063,0.979-2.576,2.187-2.949c-0.699,1.301-1.283,3.428-0.914,5.089
			c0.051-1.263,0.14-3.501,1.01-4.618c0.393,1.102,0.625,2.331,0.624,3.743c0.544-0.751-0.117-1.726,0.005-2.599
			c1.154,1.004,1.291,2.809,1.438,4.605c0.373-2.116-0.588-4.363-1.428-5.98c0.34-0.389,0.488,0.517,0.514,0.826
			c1.422,1.248,1.984,3.174,2.271,5.316c0.243-1.695-0.831-3.535-1.215-5.19c4.376,2.653,1.014,9.691-0.052,14.518
			c-0.44-1.12,0.011-2.199-0.225-3.237c-0.857-3.77-6.451-5.124-4.975-10.837c0.454-1.761,1.738-2.735,3.18-3.596
			c0.64,0.274-0.777,0.679-0.898,1.116C5.504,8.82,5.415,8.187,5.939,8.332C4.978,9.541,3.832,10.514,3.458,12.469z"/>
	</g>
	<g>
		<path d="M46.387,47.611c-6.375,3.314-1.547,10.667-7.478,14.18c-1.9,1.125-4.062,0.826-5.924-0.229
			c-0.259-0.468,0.405-0.812,0.592-1.222c-0.199-3.397,0.072-6.359,3.841-8.701c1.343-0.836,3.07-1.529,4.526-2.332
			C43.415,48.492,44.893,47.228,46.387,47.611z M34.438,61.208c0.263,0.477,0.654-0.031,0.917,0.443
			c-0.397,0.221-1.677-0.51-1.425,0.139c1.625,0.43,3.218,0.666,4.794-0.24c5.116-2.939,2.171-7.885,4.267-11.135
			c0.577-0.895,1.664-1.326,2.157-2.426c-4.195,2.615-11.577,5.133-10.413,10.117c0.914-1.433,1.479-3.486,2.86-4.499
			c-1.331,1.704-2.314,3.452-2.212,5.342c-0.203,0.234-0.746,0.973-0.231,0.943c0.569-1.73,1.503-3.99,3.277-5.204
			c-1.183,1.364-2.377,2.723-2.287,4.25c0.708-0.523,0.943-1.678,1.86-1.814c-1.009,0.986-1.726,2.012-2.24,3.064
			c1.408-0.16,3.07-1.662,4.008-2.51c-0.929,1.426-2.857,2.495-4.276,2.905c1.112,0.604,2.412-0.229,3.638-0.5
			C37.471,61.187,35.974,61.05,34.438,61.208z"/>
		<path fill="#FEF5BA" d="M39.13,60.087c-1.226,0.27-2.525,1.104-3.638,0.5c1.419-0.41,3.348-1.48,4.276-2.906
			c-0.938,0.848-2.6,2.351-4.008,2.51c0.514-1.053,1.23-2.078,2.24-3.063c-0.917,0.138-1.152,1.291-1.86,1.813
			c-0.09-1.526,1.104-2.887,2.287-4.25c-1.774,1.212-2.708,3.473-3.277,5.203c-0.515,0.029,0.028-0.709,0.231-0.942
			c-0.103-1.892,0.881-3.64,2.212-5.342c-1.381,1.012-1.946,3.066-2.86,4.498c-1.164-4.983,6.218-7.501,10.413-10.116
			c-0.493,1.1-1.58,1.531-2.157,2.426c-2.095,3.25,0.85,8.194-4.267,11.135c-1.577,0.906-3.17,0.671-4.794,0.24
			c-0.252-0.647,1.028,0.082,1.425-0.14c-0.263-0.475-0.653,0.033-0.917-0.442C35.974,61.05,37.471,61.187,39.13,60.087z"/>
	</g>
	<g>
		<path fill="#FEF5BA" d="M118.479,27.876c-2.036,3.039-3.825,7.084-8.35,7.135c0.027-0.123,0.151-0.15,0.15-0.303
			c-0.672,0.037-1.105,0.311-1.82,0.303c0.472-0.539,1.451-0.572,2.125-0.91c-0.354-0.441-0.817,0.285-1.367,0.152
			c1.181-0.895,2.539-1.611,3.947-2.277c-1.229,0.088-2.901,1.043-3.947,1.822c1.187-1.195,3.33-2.742,5.467-3.492
			c-2.629,0.51-5.116,2.475-6.982,4.25c0.533-1.691,2.745-3.023,4.401-4.098c-0.952-0.141-1.927,1.008-2.886,1.365
			c0.046-0.768,1.789-1.146,2.277-1.973c-0.123,0.027-0.149,0.152-0.303,0.15c0.641-1.035,3.855-1.598,5.616-1.518
			C117.213,28.13,117.763,27.919,118.479,27.876z"/>
		<path d="M106.485,35.923c-0.264-0.73,0.291-1.77,0.607-2.43c1.162-2.416,3.939-4.697,7.135-5.312
			c0.834-0.16,1.637,0.016,2.43-0.152c1.174-0.25,2.104-1.136,3.035-1.367c-0.408,1.591-1.654,2.369-2.428,3.492
			c-0.596,0.863-0.9,2.027-1.67,2.885c-2.055,2.289-4.75,1.918-7.592,2.43c-0.299,0.053-1.152,0.186-1.215,0.605
			C106.612,36.099,106.519,36.041,106.485,35.923z M116.809,28.484c-1.762-0.08-4.977,0.482-5.616,1.518
			c0.152,0.002,0.181-0.123,0.304-0.15c-0.488,0.828-2.232,1.205-2.277,1.973c0.959-0.357,1.933-1.506,2.885-1.365
			c-1.656,1.074-3.868,2.406-4.402,4.098c1.867-1.775,4.354-3.74,6.983-4.25c-2.136,0.75-4.28,2.297-5.466,3.492
			c1.045-0.779,2.719-1.734,3.947-1.822c-1.408,0.666-2.769,1.383-3.947,2.277c0.549,0.133,1.014-0.594,1.367-0.152
			c-0.674,0.338-1.654,0.371-2.125,0.91c0.715,0.008,1.147-0.266,1.819-0.303c0.001,0.152-0.122,0.18-0.151,0.303
			c4.524-0.051,6.313-4.096,8.351-7.135C117.763,27.919,117.213,28.13,116.809,28.484z"/>
	</g>
	<g>
		<path fill="#FEF5BA" d="M49.926,85.937c0.427-2.396,0.433-5.34,3.176-6.584c0.016,0.082-0.052,0.133-0.011,0.226
			c0.399-0.201,0.591-0.484,1.028-0.672c-0.143,0.454-0.731,0.737-1.05,1.125c0.333,0.174,0.421-0.394,0.792-0.46
			c-0.479,0.861-1.116,1.662-1.795,2.443c0.725-0.381,1.49-1.412,1.917-2.166c-0.402,1.045-1.294,2.562-2.395,3.592
			c1.465-1.016,2.455-2.879,3.117-4.461c0.128,1.174-0.863,2.578-1.584,3.679c0.618-0.171,0.904-1.132,1.392-1.604
			c0.178,0.479-0.783,1.176-0.859,1.812c0.067-0.052,0.051-0.136,0.144-0.175c-0.112,0.804-1.921,2.006-3.015,2.431
			C50.629,85.444,50.351,85.718,49.926,85.937z"/>
		<path d="M55.079,77.821c0.356,0.375,0.297,1.156,0.28,1.644c-0.06,1.783-1.142,3.918-2.924,5.147
			c-0.465,0.322-1.002,0.431-1.439,0.744c-0.649,0.468-0.977,1.256-1.484,1.646c-0.178-1.08,0.374-1.889,0.544-2.779
			c0.131-0.686,0.005-1.475,0.245-2.205c0.638-1.944,2.38-2.44,3.974-3.514c0.168-0.111,0.653-0.422,0.578-0.695
			C54.954,77.748,55.027,77.759,55.079,77.821z M50.782,85.121c1.094-0.425,2.903-1.627,3.015-2.431
			c-0.093,0.039-0.077,0.123-0.144,0.175c0.076-0.638,1.037-1.334,0.859-1.812c-0.488,0.475-0.773,1.436-1.392,1.604
			c0.721-1.101,1.712-2.505,1.584-3.679c-0.662,1.582-1.651,3.445-3.117,4.461c1.101-1.028,1.993-2.547,2.395-3.592
			c-0.428,0.754-1.192,1.785-1.917,2.166c0.68-0.781,1.316-1.582,1.795-2.442c-0.37,0.065-0.458,0.633-0.792,0.459
			c0.319-0.388,0.908-0.671,1.05-1.125c-0.438,0.188-0.629,0.471-1.028,0.672c-0.041-0.093,0.027-0.144,0.011-0.226
			c-2.743,1.244-2.749,4.188-3.176,6.584C50.351,85.718,50.629,85.444,50.782,85.121z"/>
	</g>
	<g>
		<path fill="#FEF5BA" d="M44.605,68.044c3.115-1.92,6.421-4.857,10.558-3.025c-0.077,0.101-0.201,0.074-0.264,0.213
			c0.626,0.244,1.135,0.177,1.782,0.479c-0.653,0.297-1.558-0.08-2.311-0.053c0.138,0.547,0.862,0.079,1.307,0.43
			c-1.446,0.324-2.979,0.41-4.537,0.435c1.154,0.428,3.073,0.256,4.347-0.021c-1.573,0.595-4.167,1.11-6.421,0.908
			c2.603,0.627,5.682-0.127,8.118-0.97c-1.188,1.318-3.753,1.609-5.707,1.902c0.809,0.521,2.171-0.117,3.192-0.047
			c-0.359,0.68-2.102,0.299-2.891,0.852c0.124,0.023,0.201-0.076,0.339-0.014c-1.013,0.678-4.172-0.145-5.74-0.949
			C45.861,68.339,45.275,68.302,44.605,68.044z"/>
		<path d="M58.856,65.703c-0.062,0.772-0.998,1.487-1.561,1.957c-2.06,1.717-5.535,2.639-8.696,1.871
			c-0.825-0.199-1.483-0.693-2.273-0.869c-1.173-0.261-2.385,0.162-3.33-0.019c1.032-1.276,2.489-1.469,3.659-2.168
			c0.899-0.537,1.659-1.469,2.716-1.932c2.82-1.23,5.118,0.227,7.914,0.941c0.295,0.076,1.126,0.311,1.357-0.049
			C58.814,65.49,58.875,65.58,58.856,65.703z M46.377,68.185c1.568,0.806,4.727,1.627,5.74,0.949
			c-0.138-0.062-0.215,0.037-0.339,0.014c0.789-0.553,2.532-0.172,2.891-0.852c-1.021-0.07-2.383,0.568-3.192,0.047
			c1.954-0.293,4.519-0.584,5.707-1.902c-2.436,0.843-5.515,1.597-8.118,0.97c2.254,0.202,4.848-0.313,6.421-0.908
			c-1.273,0.274-3.192,0.447-4.347,0.021c1.558-0.023,3.091-0.109,4.537-0.435c-0.444-0.351-1.168,0.117-1.307-0.43
			c0.753-0.027,1.658,0.35,2.311,0.053c-0.647-0.303-1.156-0.233-1.782-0.479c0.062-0.139,0.187-0.112,0.264-0.213
			c-4.137-1.832-7.443,1.105-10.558,3.025C45.275,68.302,45.861,68.339,46.377,68.185z"/>
	</g>
	<path fill="#A6A8AB" d="M80.383,15.85c0-1.121,2.24-4.201,2.078-4.863c-0.16-0.661-1.145-2.979-2.266-4.752
		c-1.119-1.774-2.894-2.148-2.894-2.148s0-0.84,0.093-1.68c0.094-0.84,0-1.307,0.094-2.054c0.018-0.136,0.11-0.251,0.252-0.353
		H7.083c1.018,1.409,3.002,4.135,3.752,5.021c1.026,1.214,4.294,6.722,4.854,8.028c0.56,1.306,1.587,6.068,2.334,8.589
		s2.987,3.827,3.828,4.574c0.841,0.747,1.867,3.735,2.333,4.202c0.466,0.467,1.96,3.547,1.96,3.547s0.561,0.84,0.654,1.4
		c0.094,0.561,1.68,2.24,1.982,5.414c0.302,3.174,3.152,4.762,3.6,5.881c0.448,1.119,4.406,5.041,5.526,5.975
		c1.121,0.936,8.329,1.904,9.056,1.775c0.727-0.131,4.014,0.745,8.589,2.053c4.574,1.308,8.215-2.053,10.083-3.734
		c1.867-1.68,6.254-6.068,7.666-6.549c1.414-0.481,2.416-3.254,2.883-4.561c0.467-1.307,1.494-5.508,1.494-5.508l1.773-2.613
		l1.649-3.998l0.776-0.484l0.652-1.959c0,0-0.279-2.707-0.467-4.014C81.877,21.73,80.383,16.97,80.383,15.85z"/>
	<path fill="#A6A8AB" d="M85.636,0c0.145,0.078,0.266,0.164,0.35,0.26c0.746,0.84,1.866,2.053,3.036,4.396
		c1.169,2.345,4.271,4.5,5.832,4.845c1.561,0.345,4.48,1.774,5.693,2.147c1.216,0.373,2.429-1.867,4.763-2.147
		c2.334-0.28,12.136-3.641,14.937-4.48c2.026-0.608,5.756-3.479,7.664-5.021H85.636z"/>
	<path fill="#FFFFFF" d="M58.591,108.149c0,0,3.279-1.067,4.118-2.975c0.839-1.906,1.907-3.736,2.592-4.576
		c0.688-0.838,1.527-3.354,2.518-4.192c0.992-0.841,2.211-1.755,1.982-3.511c-0.229-1.754,0.306-4.422,1.145-5.489
		c0.84-1.068,3.432-4.882,3.584-7.855c0.153-2.975,0.076-9.457,0.383-10.905c0.305-1.449,1.678-3.433,1.678-4.652
		c0-1.221-0.84-4.576-1.983-5.338c-1.144-0.764-3.278-0.535-3.278-0.535s-0.152-3.355,0.457-5.414
		c0.61-2.059,2.289-7.475,2.289-7.475s-3.052,2.059-4.119,3.203c-1.066,1.144-5.186,5.645-6.253,6.33
		c-1.068,0.688-6.056,3.062-7.68,2.333c-1.625-0.73-3.913-2.104-5.361-2.257c-1.449-0.152-4.424-0.305-4.424-0.305
		s10.067,6.938,11.974,8.692c1.907,1.756,3.279,3.586,3.279,4.195c0,0.611,0.077,5.033-0.381,6.33s-1.373,3.051-1.83,3.355
		c-0.458,0.307-1.831,3.586-1.831,4.119c0,0.532-1.678,3.66-1.983,4.194c-0.305,0.533-2.212,3.127-2.212,3.66
		s-0.472,1.012-0.472,1.012s-1.882,2.339-2.04,2.761c-0.157,0.424-1.226,2.787-0.768,2.938s0.888,0.062,0.888,0.062
		s-0.653,1.803-0.506,2.762c0.146,0.959,0.076,1.449,0.686,1.449s1.068,0.076,1.068,0.076s-0.533,0.977-0.648,1.594
		c-0.115,0.617,0.346,1.201,0.953,1.381s0.839,0.305,0.839,0.305s0.534,0.992,0.991,1.449c0.458,0.457,1.144,0.457,1.144,0.457
		S55.312,108.378,58.591,108.149z"/>
	<path fill="#FFFFFF" d="M100.767,20.901c-0.839-2.821-2.976-7.626-3.127-8.542c-0.152-0.915-0.306-1.906-0.306-1.906
		s-2.821-0.61-4.043-1.297c-1.22-0.688-3.66-2.669-4.271-4.5C88.446,2.93,87.29,0.87,86.314,0h-9.073
		c0.195,0.395,0.366,0.8,0.465,1.168c0.346,1.314-0.658,2.955,0.027,2.955c0.688,0,2.57,1.818,2.975,3.051
		c0.287,0.872,1.679,3.127,1.754,3.812c0.076,0.688-1.143,2.909-1.371,3.51c-0.229,0.6-0.916,2.896-0.534,4.27
		c0.382,1.373,1.603,3.51,1.603,5.034c0,1.525,0.381,3.737,0.457,4.958c0.076,1.221-0.076,3.584,0.61,5.414s0.687,3.432,0.838,4.5
		c0.153,1.068,1.679,3.508,1.603,4.195c-0.076,0.686,0.203,3.131,2.274,3.549c0,0,1.996,0.035,2.759-0.65
		c0.764-0.688,0.991-1.525,0.991-1.525s1.235-0.332,1.983-0.459c0.746-0.125,0.763-0.609,0.839-0.99
		c0.075-0.383,0.457-0.229,1.221-0.611c0.763-0.381,1.119-1.393,1.208-1.764s-0.064-0.828-0.064-0.828s0.873-0.041,1.067-0.688
		c0.197-0.645,0.841-2.287,0.841-2.822c0-0.533,0.586-0.602,0.989-1.371c0.406-0.771,1.297-1.832,1.373-2.746
		c0.076-0.916-0.306-4.195-0.306-5.034C100.842,26.089,101.605,23.723,100.767,20.901z"/>
	<g>
		<path d="M31.661,37.535c1.9-0.332,3.066,0.889,4.32,1.68c1.152,0.729,2.495,0.859,3.6,1.682
			C36.303,40.414,34.963,37.992,31.661,37.535z"/>
		<path d="M54.581,102.576c0.292-0.548,1.284-0.104,1.2,0.479C55.263,103.013,55.325,102.39,54.581,102.576z"/>
		<path d="M59.261,102.935c1.061-0.299,2.166,0.396,2.04,1.683C60.75,103.927,60.492,102.944,59.261,102.935z"/>
		<path d="M59.861,101.015c0.66-0.518,1.36,0.945,2.64,0.603C61.485,102.233,60.782,101.201,59.861,101.015z"/>
		<path d="M61.061,100.537c0.136-0.492,0.514,0.092,0.96,0C61.856,100.845,61.285,100.562,61.061,100.537z"/>
		<path d="M61.181,100.056c-0.207-0.674,1.324-0.188,1.32,0.601C62.098,100.494,61.697,99.705,61.181,100.056z"/>
		<path d="M62.501,92.376c0.635-2.926,1.267-6.893,2.04-10.08C64.095,85.89,63.834,89.669,62.501,92.376z"/>
		<path d="M76.062,26.256c1.03-0.479,3.033,0.062,3.358,1.079C78.512,26.765,77.456,26.341,76.062,26.256z"/>
		<path d="M76.54,23.615c0.939-0.501,2.847,0.009,3.24,0.84C78.896,23.98,77.801,23.715,76.54,23.615z"/>
		<path d="M86.142,37.416c-0.031-0.521,1.551-0.785,2.039-0.24C87.565,37.337,86.756,36.863,86.142,37.416z"/>
		<path d="M86.381,38.736c0.367-0.473,1.246-0.434,1.8-0.721C87.875,38.55,87.202,38.716,86.381,38.736z"/>
		<path d="M86.62,43.294c-0.121-1.66,2.351-2.174,3.48-1.439c-0.221,0.5-0.346-0.082-0.6-0.119
			C88.479,41.585,87.088,42.351,86.62,43.294z"/>
		<path d="M86.62,38.134c0.116-0.314,0.582-0.68,0.961-0.359C87.307,37.941,86.945,38.019,86.62,38.134z"/>
		<path d="M88.301,29.255c0.605-0.068,1.351,1.35,0.96,2.279C88.939,31.021,89.062,29.654,88.301,29.255z"/>
		<path d="M91.901,41.617c0.322-0.41,1.65-0.576,1.92,0C93.511,41.699,92.519,41.289,91.901,41.617z"/>
		<path d="M94.901,42.576c0.973-0.283,2.049-1.061,2.04-2.16c-0.005-0.539-0.462-0.773-0.601-1.32
			c-0.045-0.174,0.135-0.547,0.119-0.721c-0.133-1.582-1.416-2.346-0.84-4.199c0.012,1.443,0.992,2.646,1.2,3.959
			c0.048,0.303-0.085,0.67,0,0.961c0.13,0.449,0.582,0.777,0.601,1.199C97.472,41.492,96.304,42.701,94.901,42.576z"/>
		<path d="M96.102,15.455c-0.096,2.477,0.154,6.01,0.359,8.16C95.612,21.177,95.715,18.021,96.102,15.455z"/>
		<path d="M97.062,38.375c0.076-0.432,0.574,0.033,1.08-0.119c1.142-2.324-0.312-4.572,0-6.961c0.116-1.424,0.138,1.332,0.239,1.801
			c0.484,0.555,0.522,1.557,0.72,2.4c0.637-0.086,0.705-0.736,0.961-1.201c0.024-0.465-0.726-0.154-0.722-0.6
			c0.396-0.201,0.529,0.064,0.841,0.24c1.679-2.141-0.414-5.674,0.961-8.16c-0.412,2.324,0.517,4.503,0.358,6.839
			c-0.946,0.883-1.062,3.135-2.52,3.121c-0.352,1.527-0.048,3.711-1.682,3.959c0.224-0.418,0.879-0.402,0.842-1.08
			C98.051,38.503,97.37,38.589,97.062,38.375z"/>
		<path d="M92.741,34.416c-0.32,1.322,0.516,2.492,0.6,3.719c0.031,0.445-0.143,0.889-0.118,1.32
			c0.069,1.342,1.339,2.293,1.079,3.84c-0.625,0.336-1.194,0.727-2.159,0.721c0.006-2.135-1.381-3.652-1.802-5.039
			c-0.391-1.295,0.218-3.025-0.479-4.561c0.177,1.502-0.209,2.756,0,4.32c0.327,2.426,2.408,4.311,1.44,6.479
			c-0.836,0.688-1.637,1.404-3.36,1.201c-1.692-0.764-1.334-2.189-2.039-4.201c-0.223-0.635-0.838-1.117-1.08-1.68
			c-0.793-1.84,0.155-3.994-0.6-6c-0.149,0.783,0.071,0.949-0.24,1.68c-0.854-2.43-1.834-6.322-0.961-9
			c0.155-0.475-0.396-0.244-0.24-0.72c0.789-4.06-2.51-6.528-1.92-10.44c0.287-1.896,1.877-2.922,1.92-5.279
			c-1.405-2.578-1.6-6.926-5.159-6.961c-1.09-0.789-1.683-2.076-2.64-2.999c0.14,1.433,1.888,2.536,1.92,3.84
			c0.657-0.124,1.746,0.034,2.399,0.601c0.605,0.525,0.658,1.64,1.08,2.52c0.606,1.27,1.681,2.083,1.8,3.12
			c0.198,1.725-1.002,2.791-1.32,4.2c-0.03-1.352,0.884-2.396,0.722-3.48c-0.685,1.724-1.31,2.86-1.439,4.561
			c-0.264,3.398,2.334,6.428,1.68,9.119c-0.541-0.059-1.193-0.512-1.561-0.359c0.969,0.896,3.852,2.803,1.08,3.96
			c-0.534-0.307-0.686-0.994-1.44-1.08c0.056,0.785,0.952,0.729,1.081,1.439c-1.225,1.871-1.396,4.539-2.761,5.879
			c-2.201,2.166-4.296,4.484-6.36,6.721c-2.168,1.271-4.826,2.693-6.359,4.201c2.097-1.883,5.095-2.518,7.32-4.201
			c1.742-1.318,2.469-3.732,4.439-4.439c-1,2.629-1.236,5.115-2.76,7.08c-0.939,1.209-2.476,1.92-3.721,3
			c-3.31,2.867-5.687,6.926-9.721,8.521c-0.037-0.277,0.347-0.134,0.36-0.359c-1.689,0.744-3.986,1.479-6.24,0.84
			c-1.45-0.41-2.597-1.365-3.959-1.68c-3.157-0.728-7.162-0.607-10.081-1.441c-1.609-0.459-2.843-0.783-3.96-1.439
			c-1.954-1.646-3.462-3.738-4.92-5.879c-1.747-1.23-3.24-2.705-3.48-5.281c-0.047-0.502,0.089-1.045,0-1.561
			c-0.26-1.514-1.492-2.936-1.68-4.318c0.931,0.348,1.467,1.092,2.52,1.318c-0.4-1.035-1.887-1.139-2.76-1.92
			c-1.315-1.174-1.535-3.307-2.76-4.559c-1.012-3.348-4.338-4.611-5.641-7.681c-0.267-0.631-0.106-1.367-0.72-1.92
			c-0.723-2.846-1.186-5.411-2.16-7.8C13.571,7.41,9.59,4.006,6.993,0H6.876C9.082,4.243,13.17,7.547,15.1,12.575
			c1.849,4.814,2.324,10.239,5.64,13.92c0.526,0.584,1.311,0.866,1.8,1.44c1.575,1.85,1.667,4.799,3.48,6.359
			c-0.061,1.461,1.324,2.375,1.8,3.84c0.519,1.598,0.397,3.656,1.2,5.16c0.862,1.617,2.206,2.332,3.36,3.361
			c1.593,2.691,3.763,5.76,6.96,6.719c1.713,0.516,3.454,0.592,5.28,1.201c1.106,0.369,2.318,1.311,3.6,1.92
			c3.756,1.785,7.017,4.506,9.72,6.84c0.783,0.676,3.008,2.871,3.24,3.84c0.131,0.547-0.001,1.287,0,1.92
			c0.001,0.764,0.068,1.576,0,2.16c-0.138,1.172-0.525,3.732-1.081,4.801c-0.238,0.459-0.804,0.771-1.079,1.199
			c-0.982,1.527-1.595,3.869-2.28,5.4c-1.231,2.752-3.129,4.475-3.96,7.438c-1.19,0.462-1.961,2.025-2.521,3.48
			c-0.597,1.557-0.943,2.348,0.601,2.76c-0.457,1.019-1.054,2.724-0.36,3.84c0.316,0.125,0.737,0.146,1.2,0.121
			c-0.094-0.772-0.995-0.024-1.2-0.721c-0.16-0.564-0.048-1.242,0.24-1.681c0.714-0.192,0.288,0.752,0.84,0.722
			c0.092-0.732-0.379-0.902-0.84-1.08c0.159-1.521,1.759-2.242,1.8-3.479c-0.632,0.51-0.808,1.809-1.68,1.799
			c-1.343-0.013-0.749-1.687-0.12-2.521c0.168,0.231,0.065,0.733,0.6,0.601c-0.048-0.513-0.532-0.588-0.6-1.08
			c0.239-1.271,1.648-1.765,2.28-2.761c0.508-0.799,0.611-1.713,1.08-2.52c0.436-0.752,1.081-1.263,1.68-2.039
			c0.997-1.295,1.181-3.254,2.28-4.562c0.236-1.604,0.775-2.904,1.68-3.84c0.005,0.164-0.057,0.264-0.12,0.359
			c1.923-2.217,1.814-5.924,2.4-9.6c1.445,1.313,2.236,3.282,3.24,5.039c-0.162-1.14-0.718-2.406-1.32-3.359
			c-0.667-1.057-1.708-2.238-2.64-3.24c-4.108-4.416-8.613-8.125-13.8-11.279c3.84-0.219,5.463,1.717,8.521,2.039
			c9.321,0.986,11.335-8.115,17.28-10.92c-1.379,4.268-3.756,11.561-0.479,15.6c-0.002,0.336-0.327-0.285-0.239,0.24
			c0.846,0.834,1.405,1.953,2.16,2.881c-0.15-0.891-0.722-1.358-1.08-2.041c0.344,0.062,0.668,0.765,0.959,0.48
			c-0.238-0.24-0.609-0.35-0.721-0.719c0.405,0.066,0.794,1.045,1.081,0.479c-1.672-0.848-2.614-2.426-3.121-4.439
			c0.451,0.332,0.724-0.342,1.44-0.12c2.382,1.08,4.072,5.594,2.16,8.399c0.422-0.776,0.293-2.104,0.601-3
			c-0.571,0.26-0.616,1.146-0.722,1.683c-0.254,1.303-0.609,2.637-0.6,3.959c0.021,2.866-0.193,5.258-0.359,7.801
			c-0.106,1.613-0.319,3.353-0.721,4.799c-0.777,2.806-3.588,5.273-4.08,8.521c-0.25,1.647-0.274,2.969-1.08,3.842
			c0.674,0.037,0.642-1.15,1.08-0.961c-0.143,1.805-1.69,2.65-2.64,3.84c-1.022,1.285-1.299,3.086-2.64,4.201
			c-0.053-0.229,0.163-0.725-0.24-0.602c-0.541,2.83-2.273,5.813-4.68,6.721c-1.481,0.559-3.48-0.299-3.72-1.562
			c-0.394-2.071,2.281-2.93,2.16-4.799c0.996-0.219,2.698-2.01,2.041-3.479c-0.83,1.17-1.191,2.809-2.52,3.479
			c-0.147,1.894-1.7,2.379-2.28,3.84c-2.131-0.495-1.249-2.868-0.12-3.84c-0.034-2.313,1.935-2.625,2.159-4.683
			c-2.128,1.433-2.128,4.992-4.08,6.603c-0.838-0.203-1.305-0.774-1.56-1.562c0.295-0.307,0.42-0.78,0.96-0.84
			c0.572-0.012,0.569,0.551,1.08,0.601c-0.143-0.701-0.686-0.927-1.439-0.722c0.918-2.28,2.423-3.975,3.479-6.119
			c-0.823,1.074-1.89,2.33-2.64,3.48c-0.494,0.758-0.682,1.545-1.08,2.4c-0.258,0.553-0.783,0.846-0.72,1.439
			c0.088,0.836,1.19,1.428,2.16,1.68c0.042,1.279,1.146,1.494,1.92,2.039c-0.051,2.213,1.864,2.457,3.6,2.881
			c1.431-0.682,3.362-1.545,4.319-2.881c0.391-0.543,0.379-1.324,0.721-2.158c0.348-0.852,1.135-1.809,1.801-2.881
			c0.657-1.062,1.049-2.34,1.68-3.119c0.769-0.949,1.824-1.49,2.279-2.4c0.576-1.156,0.109-2.754,0.359-3.961
			c0.549-2.643,2.248-4.324,3.24-6.359c0.609-1.252,1.248-2.793,1.439-4.438c0.438-3.754,0.106-7.879,0.602-11.521
			c0.191-1.422,1.156-2.568,1.318-4.08c0.424-3.922-1.148-7.262-4.799-7.08c-0.531-9.266,5.225-14.283,6.719-22.32
			c1.377-1.463,1.842-3.838,2.641-5.879c0.588,0.672,0.414-0.756,1.199-0.6c0.18,0.568-0.159,2.072,0,3.238
			c0.166,1.205,1.412,2.963,1.561,5.16c0.051,0.748-0.09,1.508,0,2.281c0.176,1.502,0.82,1.836,1.201,3
			c0.562,1.719,0.453,3.332,1.439,4.08c1.408,1.068,4.268-0.023,5.16-1.201c0.143-0.377,0.135-0.904,0.358-1.199
			c1.157,0.156,1.583-0.418,2.399-0.6c0.851-1.371-0.469-2.576-0.719-3.84C93.345,38.023,93.577,36.095,92.741,34.416z"/>
		<path d="M64.901,38.976c-0.739,1.232-2.15,2.156-3.72,3c-1.624,0.871-3.306,1.059-5.28,1.439c-2.247,0.434-4.237,1.215-7.08,0.959
			c-1.036-0.092-2.285-0.201-3.24-0.479c-1.776-0.52-3.209-1.834-4.92-2.16c2.947,0.66,5.172,2.186,8.52,2.279
			c1.599,0.045,3.037-0.076,4.32-0.48c0.944-0.297,2.022-0.994,3.36-1.199c0.567-0.088,1.128,0.168,1.68,0.119
			C61.229,42.222,63.236,40.144,64.901,38.976z"/>
		<path d="M53.021,93.576c0.016-0.666,0.805-1.595,1.561-1.92C54.09,92.326,53.367,92.761,53.021,93.576z"/>
		<path d="M63.821,38.255c0.415,0.369,0.967-0.654,1.561-0.121c-1.524,1.895-4.375,1.383-7.32,1.561
			c1.671-1.135,3.943,0.178,5.28-0.84c0.551-0.42,0.815-1.426,1.2-2.039c0.441-0.705,0.981-1.303,1.2-2.16
			c3.977-4.398,10.463-7.28,11.04-14.76c0.152-1.969,0.488-4.243,0.24-6.481c-0.123-1.113-0.793-2.827,0-3.959
			c0.062,0.821-0.168,2.23,0.239,3.24c0.189-2.24,1.343-5.434,0.121-7.8c0.566,0.624,1.152,2.179,1.08,3.6
			c-0.09,1.757-0.967,3.04-1.08,4.681c-0.237,3.433,0.228,6.547-0.602,9.239c-2.258,7.356-9.471,9.174-12.719,15.719
			C63.963,38.158,63.941,38.255,63.821,38.255z"/>
		<path d="M59.381,92.496c-0.341-0.447,0.236-1.024,0.48-1.562c0.451-0.99,0.792-2.125,1.2-3.119
			C60.958,89.353,60.1,91.173,59.381,92.496z"/>
		<path d="M74.142,16.295c-0.808,3.754-3.445,5.676-6.121,7.561c-1.274,0.057-2.649,0.999-4.2,1.32
			c-1.457,0.301-2.867,0.452-3.84,1.319c-0.004,0.117-0.147,0.093-0.24,0.12c2.096-1.981,6.296-1.967,8.878-3.6
			C71.043,21.483,72.435,18.74,74.142,16.295z"/>
		<path d="M71.86,6.695c-0.295,1.625-1.082,2.758-2.039,3.72C70.181,9.807,71.269,7.869,71.86,6.695z"/>
		<path d="M127.581,0c-1.164,0.922-2.135,2.035-3.399,2.855c-2.427,1.367-4.88,2.395-8.039,3.479
			c-2.274,0.782-4.634,1.808-6.841,2.16c-0.684,0.108-1.264-0.008-2.159,0.12c-2.047,0.293-4.688,1.353-6.479,0.96
			c-0.511-0.112-1-0.751-1.562-1.2c-1.729-1.383-3.226-2.639-4.681-3.96c-0.266-0.616-0.803-1.595-1.198-1.68
			c1.69,3.188,4.67,5.089,7.319,7.319c0.787,0.123,2.242,0.172,3.119,0.121c-1.078,1.136-4.803,1.945-5.76,0.119
			c-0.021,0.18,0.043,0.443-0.12,0.48c-1.706-1.062-4.157-1.289-5.761-2.52c-1.371-1.055-2.494-3.158-3.359-4.801
			C88,2.202,87.12,0.97,86.267,0h-0.586c0.301,0.298,0.631,0.578,0.938,0.936c1.777,2.051,2.734,5.109,4.682,7.08
			c1.464,1.48,3.519,1.589,5.521,2.64c1.562,4.638,4.328,8.711,4.08,14.76c0.535-0.21,0.45-0.971,0.479-1.439
			c0.275-4.442-2.735-8.467-3.239-12.841c0.612,0.205,1.147,0.546,1.799,0.601c2.272,0.19,3.169-1.326,4.562-1.8
			c1.494-0.509,3.224-0.475,4.801-0.84c2.086-0.484,4.591-1.363,6.84-2.28c4.752-1.939,8.99-3.71,12.059-6.815h-0.621V0z"/>
		<path d="M94.781,40.175c0.161-0.334,0.925-0.518,1.32-0.24C95.854,40.208,95.065,39.939,94.781,40.175z"/>
	</g>
	<path d="M77.918,1.834C77.815,1.208,77.706,0.584,77.435,0h-0.399c0.193,0.541,0.33,1.093,0.391,1.636
		c0.115,1.03-0.25,1.862,0.054,2.812c0.147-0.099,0.237-0.146,0.288-0.165c-0.117-0.395-0.213-0.544-0.086-1.001
		C77.821,2.775,77.737,2.215,77.918,1.834z"/>
	
		<text transform="matrix(1 0 0 1 7.1079 13.5215)" opacity="0" enable-background="new    " font-family="'MyriadPro-Regular'" font-size="12">a</text>
</g>
</svg>
