<?xml version="1.0" encoding="utf-8"?>
<!-- Generator: Adobe Illustrator 14.0.0, SVG Export Plug-In . SVG Version: 6.00 Build 43363)  -->
<!DOCTYPE svg PUBLIC "-//W3C//DTD SVG 1.1//EN" "http://www.w3.org/Graphics/SVG/1.1/DTD/svg11.dtd">
<svg version="1.1" id="Layer_1" xmlns="http://www.w3.org/2000/svg" xmlns:xlink="http://www.w3.org/1999/xlink" x="0px" y="0px"
	 width="128.2px" height="108.576px" viewBox="0 0 128.2 108.576" enable-background="new 0 0 128.2 108.576" xml:space="preserve">
<g>
	<g>
		<path fill-rule="evenodd" clip-rule="evenodd" d="M68.146,56.195c0.333-3.92,1.275-6.373,3.643-8.197
			c2.343-1.805,5.867-2.367,8.047-4.25c1.148-0.992,1.385-2.381,2.429-3.492c-0.728,2.875-0.978,5.088-1.974,7.135
			c-0.758,1.557-2.006,3.49-3.34,4.555C74.517,53.888,71.04,54.378,68.146,56.195z M70.726,54.07
			c2.047-0.586,3.232-2.031,5.01-2.885c-0.964,0.959-2.287,1.559-3.188,2.582c4.951-1.578,7.447-5.609,8.652-10.932
			c-3.678,4.115-11.369,4.217-12.447,10.932c1.102-1.734,2.283-4.193,4.099-4.707c-1.408,1.174-2.995,2.977-3.188,4.857
			c0.842-1.182,2.07-2.785,3.037-3.34c-0.687,0.916-1.499,1.65-1.52,2.582c1.234-0.84,2.166-1.984,3.492-2.732
			C73.319,51.603,72.306,53.121,70.726,54.07z"/>
		<path fill-rule="evenodd" clip-rule="evenodd" fill="#FEF5BA" d="M74.673,50.427c-1.326,0.748-2.258,1.893-3.492,2.732
			c0.021-0.932,0.833-1.666,1.52-2.582c-0.967,0.555-2.195,2.158-3.037,3.34c0.193-1.881,1.78-3.684,3.188-4.857
			c-1.815,0.514-2.997,2.973-4.099,4.707c1.078-6.715,8.77-6.816,12.447-10.932c-1.205,5.322-3.701,9.354-8.652,10.932
			c0.9-1.023,2.224-1.623,3.188-2.582c-1.777,0.854-2.963,2.299-5.01,2.885C72.306,53.121,73.319,51.603,74.673,50.427z"/>
	</g>
	<g>
		<path fill-rule="evenodd" clip-rule="evenodd" d="M106.452,14.181c-0.332,3.921-1.275,6.373-3.643,8.197
			c-2.342,1.805-5.867,2.368-8.047,4.251c-1.147,0.992-1.384,2.38-2.428,3.492c0.727-2.875,0.978-5.089,1.973-7.136
			c0.758-1.557,2.006-3.489,3.34-4.553C100.082,16.488,103.558,15.998,106.452,14.181z M103.872,16.305
			c-2.047,0.586-3.232,2.031-5.01,2.885c0.965-0.958,2.287-1.559,3.188-2.58c-4.952,1.576-7.447,5.608-8.653,10.93
			c3.678-4.114,11.37-4.215,12.448-10.93c-1.102,1.732-2.284,4.192-4.099,4.706c1.408-1.173,2.994-2.976,3.188-4.858
			c-0.842,1.184-2.07,2.787-3.036,3.34c0.687-0.914,1.499-1.65,1.519-2.58c-1.234,0.84-2.166,1.983-3.492,2.732
			C101.278,18.772,102.292,17.256,103.872,16.305z"/>
		<path fill-rule="evenodd" clip-rule="evenodd" fill="#FEF5BA" d="M99.925,19.949c1.326-0.749,2.258-1.893,3.492-2.732
			c-0.02,0.93-0.832,1.666-1.519,2.58c0.966-0.553,2.194-2.156,3.036-3.34c-0.193,1.883-1.779,3.686-3.188,4.858
			c1.814-0.514,2.997-2.974,4.099-4.706c-1.078,6.715-8.771,6.815-12.448,10.93c1.206-5.321,3.701-9.354,8.653-10.93
			c-0.901,1.021-2.224,1.622-3.188,2.58c1.777-0.854,2.963-2.299,5.01-2.885C102.292,17.256,101.278,18.772,99.925,19.949z"/>
	</g>
	<g>
		<path fill-rule="evenodd" clip-rule="evenodd" d="M97.435,68.724c0.189,2.852-0.22,4.713-1.72,6.281
			c-1.483,1.551-3.952,2.34-5.31,3.928c-0.716,0.838-0.734,1.859-1.361,2.771c0.207-2.143,0.146-3.758,0.637-5.336
			c0.373-1.199,1.059-2.723,1.9-3.633C93.115,71.076,95.556,70.345,97.435,68.724z M95.815,70.531
			c-1.404,0.645-2.098,1.811-3.281,2.617c0.588-0.793,1.473-1.367,2.007-2.199c-3.382,1.672-4.731,4.838-5.017,8.787
			c2.19-3.354,7.699-4.266,7.74-9.201c-0.602,1.363-1.182,3.258-2.428,3.824c0.882-0.996,1.824-2.463,1.758-3.834
			c-0.476,0.941-1.182,2.225-1.814,2.729c0.393-0.732,0.895-1.35,0.807-2.02c-0.793,0.738-1.338,1.662-2.207,2.344
			C94.222,72.585,94.784,71.386,95.815,70.531z"/>
		<path fill-rule="evenodd" clip-rule="evenodd" fill="#FEF5BA" d="M93.38,73.578c0.869-0.682,1.414-1.605,2.207-2.344
			c0.088,0.67-0.414,1.287-0.807,2.02c0.633-0.504,1.339-1.787,1.814-2.729c0.066,1.371-0.876,2.838-1.758,3.834
			c1.246-0.566,1.826-2.461,2.428-3.824c-0.041,4.936-5.55,5.848-7.74,9.201c0.285-3.949,1.635-7.115,5.017-8.787
			c-0.534,0.832-1.419,1.406-2.007,2.199c1.184-0.807,1.877-1.973,3.281-2.617C94.784,71.386,94.222,72.585,93.38,73.578z"/>
	</g>
	<g>
		<path fill-rule="evenodd" clip-rule="evenodd" d="M118.476,13.609c-0.189-2.85,0.219-4.713,1.719-6.28
			c1.484-1.55,3.953-2.339,5.311-3.929c0.715-0.837,0.734-1.859,1.361-2.77c-0.207,2.142-0.146,3.758-0.637,5.335
			c-0.373,1.2-1.059,2.724-1.9,3.632C122.795,11.258,120.354,11.99,118.476,13.609z M120.095,11.803
			c1.404-0.643,2.098-1.81,3.281-2.617c-0.588,0.793-1.473,1.369-2.008,2.201c3.383-1.672,4.732-4.838,5.018-8.789
			c-2.191,3.355-7.699,4.267-7.74,9.203c0.602-1.364,1.182-3.258,2.428-3.824c-0.883,0.995-1.824,2.462-1.758,3.834
			c0.475-0.941,1.182-2.227,1.814-2.729c-0.393,0.731-0.895,1.348-0.808,2.018c0.794-0.737,1.338-1.66,2.208-2.342
			C121.688,9.75,121.125,10.949,120.095,11.803z"/>
		<path fill-rule="evenodd" clip-rule="evenodd" fill="#FEF5BA" d="M122.53,8.758c-0.87,0.682-1.414,1.604-2.208,2.342
			c-0.087-0.67,0.415-1.286,0.808-2.018c-0.633,0.502-1.34,1.787-1.814,2.729c-0.066-1.372,0.875-2.839,1.758-3.834
			c-1.246,0.566-1.826,2.46-2.428,3.824c0.041-4.937,5.549-5.848,7.74-9.203c-0.285,3.951-1.635,7.117-5.018,8.789
			c0.535-0.832,1.42-1.408,2.008-2.201c-1.184,0.808-1.877,1.975-3.281,2.617C121.125,10.949,121.688,9.75,122.53,8.758z"/>
	</g>
	<g>
		<path fill-rule="evenodd" clip-rule="evenodd" d="M18.977,48.986c-2.46-2.709-3.535-4.902-3.28-7.67
			c0.253-2.738,2.1-5.496,2.196-8.172c0.05-1.412-0.746-2.451-0.842-3.865c1.498,2.314,2.848,3.887,3.613,5.859
			c0.581,1.502,1.107,3.576,0.989,5.158C21.436,43.185,19.571,45.863,18.977,48.986z M19.163,45.884
			c0.895-1.766,0.661-3.488,1.205-5.24c0.042,1.264-0.386,2.545-0.259,3.807c2.06-4.373,0.891-8.625-1.972-12.814
			c0.476,5.111-4.323,10.416-0.43,15.4c-0.484-1.848-1.411-4.211-0.613-5.771c-0.091,1.701,0.133,3.924,1.292,5.246
			c-0.273-1.322-0.588-3.174-0.354-4.184c0.189,1.047,0.176,2.066,0.798,2.67c0.208-1.373,0.019-2.732,0.348-4.109
			C19.123,42.554,19.515,44.205,19.163,45.884z"/>
		<path fill-rule="evenodd" clip-rule="evenodd" fill="#FEF5BA" d="M19.177,40.888c-0.329,1.377-0.14,2.736-0.348,4.109
			c-0.622-0.604-0.608-1.623-0.798-2.67c-0.234,1.01,0.081,2.861,0.354,4.184c-1.16-1.322-1.384-3.545-1.292-5.246
			c-0.798,1.561,0.129,3.924,0.613,5.771c-3.893-4.984,0.906-10.289,0.43-15.4c2.863,4.189,4.032,8.441,1.972,12.814
			c-0.127-1.262,0.302-2.543,0.259-3.807c-0.544,1.752-0.31,3.475-1.205,5.24C19.515,44.205,19.123,42.554,19.177,40.888z"/>
	</g>
	<g>
		<path fill-rule="evenodd" clip-rule="evenodd" fill="#FEF5BA" d="M67.528,88.23c-0.055-0.137,0.125-0.182,0.219-0.26
			c-0.238,0.199,0.098,0.553,0.102,0.619c0.058,1.465-0.707,3.113,0.787,5.281c-0.62-1.865-0.551-3.455-0.528-5.062
			c0.475,1.018,0.536,2.154,1.024,3.525c0.322-0.91-0.629-2.328-0.227-3.209c0.193,1.461,0.736,2.732,1.482,3.824
			c-0.637-2.18-1.309-4.371-1.807-6.494c1.189,2.154,1.637,4.711,3.064,7.109c-0.459-1.883-1.486-4.059-2.025-6.234
			c1.893,2.555,2.73,8.471,5.246,11.791c-1.818-0.943-5.066-0.973-6.545-3.297C66.647,93.193,66.668,90.417,67.528,88.23z"/>
		<path fill-rule="evenodd" clip-rule="evenodd" d="M67.68,84.363c0.208-0.135,0.297,0.029,0.479-0.041
			c3.727,4.734,4.087,11.305,7.545,15.594c-2.342-1.344-6.004-1.152-7.741-3.771c-2.641-3.98-1.053-7.504-0.142-10.686
			C67.621,85.033,67.705,84.72,67.68,84.363z M68.321,95.824c1.479,2.324,4.727,2.354,6.545,3.297
			c-2.516-3.32-3.354-9.236-5.246-11.791c0.539,2.176,1.566,4.352,2.025,6.234c-1.428-2.398-1.875-4.955-3.064-7.109
			c0.498,2.123,1.17,4.314,1.807,6.494c-0.746-1.092-1.289-2.363-1.482-3.824c-0.402,0.881,0.549,2.299,0.227,3.209
			c-0.488-1.371-0.55-2.508-1.024-3.525c-0.022,1.607-0.092,3.197,0.528,5.062c-1.494-2.168-0.729-3.816-0.787-5.281
			c-0.004-0.066-0.34-0.42-0.102-0.619c-0.094,0.078-0.273,0.123-0.219,0.26C66.668,90.417,66.647,93.193,68.321,95.824z"/>
	</g>
	<g>
		<path fill-rule="evenodd" clip-rule="evenodd" fill="#FEF5BA" d="M111.636,12.527c0.055,0.138-0.124,0.182-0.219,0.26
			c0.238-0.197-0.098-0.552-0.101-0.617c-0.059-1.465,0.706-3.115-0.788-5.281c0.62,1.864,0.551,3.454,0.528,5.062
			c-0.475-1.02-0.536-2.155-1.024-3.526c-0.322,0.911,0.629,2.329,0.227,3.208c-0.193-1.459-0.736-2.731-1.482-3.823
			c0.637,2.179,1.309,4.371,1.807,6.495c-1.189-2.155-1.637-4.712-3.064-7.11c0.459,1.884,1.487,4.058,2.025,6.234
			c-1.893-2.554-2.73-8.47-5.246-11.79c1.818,0.942,5.066,0.972,6.545,3.297C112.517,7.566,112.495,10.342,111.636,12.527z"/>
		<path fill-rule="evenodd" clip-rule="evenodd" d="M111.484,16.395c-0.208,0.137-0.297-0.027-0.479,0.041
			c-3.727-4.734-4.087-11.305-7.545-15.592c2.342,1.344,6.004,1.152,7.741,3.771c2.641,3.98,1.054,7.503,0.142,10.684
			C111.543,15.726,111.459,16.039,111.484,16.395z M110.843,4.936c-1.479-2.325-4.727-2.354-6.545-3.297
			c2.516,3.32,3.354,9.236,5.246,11.79c-0.538-2.177-1.566-4.351-2.025-6.234c1.428,2.398,1.875,4.955,3.064,7.11
			c-0.498-2.124-1.17-4.316-1.807-6.495c0.746,1.092,1.289,2.364,1.482,3.823c0.402-0.879-0.549-2.297-0.227-3.208
			c0.488,1.371,0.55,2.507,1.024,3.526c0.022-1.608,0.092-3.198-0.528-5.062c1.494,2.166,0.729,3.816,0.788,5.281
			c0.003,0.065,0.339,0.42,0.101,0.617c0.095-0.078,0.273-0.122,0.219-0.26C112.495,10.342,112.517,7.566,110.843,4.936z"/>
	</g>
	<g>
		<path fill-rule="evenodd" clip-rule="evenodd" d="M71.026,64.781c7.074,1.26,7.73-7.514,14.574-6.68
			c2.191,0.266,3.723,1.822,4.555,3.795c-0.08,0.527-0.818,0.398-1.215,0.607c-1.914,2.814-3.934,4.996-8.35,4.555
			c-1.574-0.158-3.367-0.66-5.01-0.912C73.919,65.894,71.978,65.994,71.026,64.781z M88.788,61.289
			c0.082-0.537-0.537-0.373-0.455-0.91c0.447,0.068,1.018,1.428,1.215,0.76c-1.027-1.33-2.146-2.49-3.947-2.734
			c-5.848-0.789-6.529,4.928-10.172,6.225c-1.002,0.357-2.127,0.037-3.188,0.607c4.918,0.486,12.305,2.99,14.422-1.67
			c-1.599,0.578-3.299,1.863-5.01,1.822c2.093-0.539,3.938-1.324,5.01-2.885c0.304-0.062,1.185-0.316,0.76-0.607
			c-1.507,1.025-3.625,2.246-5.77,2.125c1.768-0.357,3.543-0.707,4.402-1.973c-0.881-0.018-1.771,0.754-2.58,0.303
			c1.4-0.166,2.594-0.541,3.643-1.062c-1.213-0.73-3.445-0.555-4.706-0.455c1.606-0.564,3.786-0.236,5.161,0.305
			c-0.514-1.156-2.052-1.289-3.188-1.822C86.371,59.457,87.474,60.478,88.788,61.289z"/>
		<path fill-rule="evenodd" clip-rule="evenodd" fill="#FEF5BA" d="M84.386,59.316c1.136,0.533,2.674,0.666,3.188,1.822
			c-1.375-0.541-3.555-0.869-5.161-0.305c1.261-0.1,3.493-0.275,4.706,0.455c-1.049,0.521-2.242,0.896-3.643,1.062
			c0.81,0.451,1.699-0.32,2.58-0.303c-0.859,1.266-2.635,1.615-4.402,1.973c2.145,0.121,4.263-1.1,5.77-2.125
			c0.425,0.291-0.456,0.545-0.76,0.607c-1.071,1.561-2.917,2.346-5.01,2.885c1.711,0.041,3.411-1.244,5.01-1.822
			c-2.117,4.66-9.504,2.156-14.422,1.67c1.061-0.57,2.186-0.25,3.188-0.607c3.643-1.297,4.324-7.014,10.172-6.225
			c1.802,0.244,2.92,1.404,3.947,2.734c-0.197,0.668-0.768-0.691-1.215-0.76c-0.082,0.537,0.537,0.373,0.455,0.91
			C87.474,60.478,86.371,59.457,84.386,59.316z"/>
	</g>
	<g>
		<path fill-rule="evenodd" clip-rule="evenodd" d="M127.272,18.858c-7.075-1.26-7.731,7.513-14.574,6.68
			c-2.191-0.267-3.723-1.821-4.555-3.795c0.08-0.528,0.818-0.397,1.215-0.608c1.914-2.812,3.934-4.995,8.35-4.553
			c1.574,0.156,3.366,0.659,5.01,0.91C124.379,17.745,126.321,17.645,127.272,18.858z M109.511,22.35
			c-0.082,0.538,0.537,0.373,0.455,0.911c-0.449-0.068-1.019-1.427-1.215-0.759c1.026,1.33,2.145,2.489,3.947,2.732
			c5.848,0.789,6.529-4.926,10.172-6.225c1.002-0.357,2.127-0.036,3.188-0.606c-4.919-0.485-12.306-2.991-14.422,1.669
			c1.598-0.578,3.299-1.861,5.01-1.821c-2.094,0.538-3.939,1.324-5.01,2.884c-0.305,0.062-1.186,0.317-0.76,0.608
			c1.506-1.025,3.624-2.246,5.77-2.126c-1.768,0.359-3.543,0.709-4.402,1.974c0.881,0.017,1.77-0.755,2.58-0.304
			c-1.401,0.167-2.595,0.543-3.643,1.062c1.213,0.732,3.445,0.556,4.705,0.456c-1.605,0.563-3.786,0.235-5.16-0.304
			c0.514,1.155,2.051,1.287,3.188,1.822C111.927,24.184,110.825,23.161,109.511,22.35z"/>
		<path fill-rule="evenodd" clip-rule="evenodd" fill="#FEF5BA" d="M113.913,24.324c-1.137-0.535-2.674-0.667-3.188-1.822
			c1.374,0.539,3.555,0.867,5.16,0.304c-1.26,0.1-3.492,0.276-4.705-0.456c1.048-0.52,2.241-0.896,3.643-1.062
			c-0.811-0.451-1.699,0.32-2.58,0.304c0.859-1.265,2.635-1.614,4.402-1.974c-2.146-0.12-4.264,1.101-5.77,2.126
			c-0.426-0.291,0.455-0.546,0.76-0.608c1.07-1.56,2.916-2.346,5.01-2.884c-1.711-0.04-3.412,1.243-5.01,1.821
			c2.116-4.66,9.503-2.154,14.422-1.669c-1.061,0.57-2.186,0.249-3.188,0.606c-3.643,1.299-4.324,7.014-10.172,6.225
			c-1.803-0.243-2.921-1.402-3.947-2.732c0.196-0.668,0.766,0.69,1.215,0.759c0.082-0.538-0.537-0.373-0.455-0.911
			C110.825,23.161,111.927,24.184,113.913,24.324z"/>
	</g>
	<g>
		<path fill-rule="evenodd" clip-rule="evenodd" d="M14.196,43.009c-3.854-0.795-6.177-2.021-7.708-4.59
			c-1.514-2.539-1.656-6.105-3.267-8.492c-0.849-1.258-2.2-1.656-3.179-2.826c2.768,1.062,4.937,1.574,6.851,2.804
			c1.456,0.938,3.227,2.406,4.126,3.857C12.66,36.41,12.734,39.919,14.196,43.009z M12.392,40.195
			c-0.339-2.102-1.633-3.449-2.27-5.316c0.837,1.072,1.276,2.457,2.184,3.473c-0.978-5.104-4.686-8.061-9.827-9.889
			c3.65,4.141,2.838,11.789,9.377,13.656c-1.59-1.299-3.892-2.766-4.187-4.629c0.998,1.537,2.599,3.328,4.445,3.742
			c-1.075-0.977-2.521-2.385-2.956-3.41c0.827,0.789,1.461,1.684,2.383,1.812c-0.688-1.324-1.713-2.385-2.3-3.791
			C10.25,37.328,11.635,38.513,12.392,40.195z"/>
		<path fill-rule="evenodd" clip-rule="evenodd" fill="#FEF5BA" d="M9.242,35.843c0.586,1.406,1.611,2.467,2.3,3.791
			c-0.922-0.129-1.556-1.023-2.383-1.812c0.435,1.025,1.881,2.434,2.956,3.41c-1.846-0.414-3.447-2.205-4.445-3.742
			c0.295,1.863,2.597,3.33,4.187,4.629c-6.54-1.867-5.728-9.516-9.377-13.656c5.141,1.828,8.849,4.785,9.827,9.889
			c-0.908-1.016-1.347-2.4-2.184-3.473c0.637,1.867,1.931,3.215,2.27,5.316C11.635,38.513,10.25,37.328,9.242,35.843z"/>
	</g>
	<g>
		<path fill-rule="evenodd" clip-rule="evenodd" d="M13.555,18.27c2.853,0.15,4.653,0.776,6.032,2.452
			c1.364,1.657,1.854,4.201,3.271,5.737c0.748,0.811,1.76,0.949,2.59,1.681c-2.102-0.46-3.714-0.591-5.222-1.265
			c-1.147-0.514-2.579-1.375-3.382-2.316C15.377,22.838,14.941,20.327,13.555,18.27z M15.157,20.092
			c0.473,1.471,1.549,2.297,2.209,3.567c-0.718-0.677-1.184-1.624-1.947-2.253c1.259,3.556,4.243,5.271,8.132,6.023
			c-3.071-2.573-3.323-8.151-8.22-8.777c1.282,0.76,3.095,1.561,3.509,2.865c-0.884-0.995-2.229-2.104-3.599-2.2
			c0.879,0.583,2.071,1.437,2.494,2.125c-0.68-0.477-1.232-1.049-1.908-1.042c0.639,0.877,1.49,1.525,2.064,2.47
			C17.007,21.916,15.883,21.217,15.157,20.092z"/>
		<path fill-rule="evenodd" clip-rule="evenodd" fill="#FEF5BA" d="M17.892,22.87c-0.574-0.944-1.425-1.593-2.064-2.47
			c0.676-0.007,1.228,0.565,1.908,1.042c-0.423-0.688-1.615-1.542-2.494-2.125c1.37,0.097,2.715,1.205,3.599,2.2
			c-0.415-1.305-2.227-2.105-3.509-2.865c4.896,0.626,5.148,6.204,8.22,8.777c-3.889-0.752-6.873-2.468-8.132-6.023
			c0.763,0.629,1.229,1.576,1.947,2.253c-0.661-1.271-1.737-2.097-2.209-3.567C15.883,21.217,17.007,21.916,17.892,22.87z"/>
	</g>
	<g>
		<path fill-rule="evenodd" clip-rule="evenodd" fill="#FEF5BA" d="M8.517,11.883c-0.143,0.039-0.166-0.145-0.232-0.248
			c0.168,0.26,0.56-0.031,0.625-0.027c1.461,0.116,3.009,1.07,5.337-0.155c-1.925,0.395-3.495,0.138-5.089-0.076
			c1.068-0.351,2.203-0.276,3.623-0.599c-0.866-0.428-2.387,0.349-3.213-0.156c1.472-0.018,2.8-0.407,3.973-1.019
			c-2.239,0.375-4.495,0.782-6.663,1.024c2.281-0.926,4.873-1.066,7.423-2.199C12.375,8.66,10.095,9.423,7.87,9.7
			c2.761-1.577,8.734-1.708,12.329-3.812c-1.151,1.692-1.565,4.915-4.049,6.107C13.339,13.346,10.586,12.996,8.517,11.883z"/>
		<path fill-rule="evenodd" clip-rule="evenodd" d="M4.694,11.274c-0.111-0.224,0.064-0.292,0.016-0.48
			c5.143-3.14,11.71-2.719,16.377-5.644c-1.612,2.165-1.856,5.824-4.663,7.239C12.16,14.539,8.85,12.546,5.8,11.264
			C5.352,11.412,5.052,11.291,4.694,11.274z M16.15,11.996c2.483-1.192,2.898-4.415,4.049-6.107C16.604,7.992,10.631,8.123,7.87,9.7
			c2.225-0.277,4.505-1.04,6.431-1.272c-2.551,1.133-5.143,1.273-7.423,2.199c2.168-0.242,4.424-0.649,6.663-1.024
			c-1.172,0.611-2.5,1.001-3.973,1.019c0.826,0.505,2.347-0.271,3.213,0.156c-1.419,0.322-2.555,0.248-3.623,0.599
			c1.594,0.214,3.165,0.471,5.089,0.076c-2.328,1.226-3.876,0.271-5.337,0.155c-0.065-0.004-0.457,0.287-0.625,0.027
			c0.066,0.104,0.089,0.287,0.232,0.248C10.586,12.996,13.339,13.346,16.15,11.996z"/>
	</g>
	<g>
		<path fill-rule="evenodd" clip-rule="evenodd" d="M7.3,26.382c2.09-6.876-6.543-8.567-4.905-15.263
			c0.524-2.145,2.25-3.481,4.308-4.072c0.516,0.142,0.298,0.859,0.459,1.277c2.566,2.234,4.494,4.499,3.532,8.831
			c-0.343,1.544-1.054,3.265-1.498,4.866C8.749,23.641,8.619,25.582,7.3,26.382z M5.939,8.332C5.415,8.187,5.504,8.82,4.98,8.676
			C5.102,8.238,6.518,7.834,5.878,7.56c-1.442,0.861-2.727,1.835-3.182,3.596c-1.477,5.713,4.118,7.067,4.975,10.837
			c0.236,1.038-0.215,2.117,0.225,3.237c1.065-4.826,4.428-11.864,0.052-14.518c0.385,1.655,1.458,3.495,1.215,5.19
			c-0.287-2.143-0.848-4.068-2.271-5.316c-0.026-0.31-0.174-1.215-0.514-0.826c0.84,1.617,1.801,3.864,1.428,5.98
			c-0.147-1.797-0.284-3.602-1.438-4.605c-0.122,0.873,0.539,1.848-0.005,2.599c0.001-1.412-0.231-2.642-0.624-3.743
			c-0.87,1.117-0.959,3.355-1.01,4.618C4.361,12.947,4.945,10.82,5.645,9.52c-1.208,0.373-1.522,1.885-2.187,2.949
			C3.832,10.514,4.978,9.541,5.939,8.332z"/>
		<path fill-rule="evenodd" clip-rule="evenodd" fill="#FEF5BA" d="M3.458,12.469c0.665-1.064,0.979-2.576,2.187-2.949
			c-0.699,1.301-1.283,3.428-0.914,5.089c0.051-1.263,0.14-3.501,1.01-4.618c0.393,1.102,0.625,2.331,0.624,3.743
			c0.544-0.751-0.117-1.726,0.005-2.599c1.154,1.004,1.291,2.809,1.438,4.605c0.373-2.116-0.588-4.363-1.428-5.98
			c0.34-0.389,0.488,0.517,0.514,0.826c1.422,1.248,1.984,3.174,2.271,5.316c0.243-1.695-0.831-3.535-1.215-5.19
			c4.376,2.653,1.014,9.691-0.052,14.518c-0.44-1.12,0.011-2.199-0.225-3.237c-0.857-3.77-6.451-5.124-4.975-10.837
			C3.152,9.395,4.436,8.421,5.878,7.56c0.64,0.274-0.777,0.679-0.898,1.116C5.504,8.82,5.415,8.187,5.939,8.332
			C4.978,9.541,3.832,10.514,3.458,12.469z"/>
	</g>
	<g>
		<path fill-rule="evenodd" clip-rule="evenodd" d="M46.387,47.611c-6.375,3.314-1.547,10.668-7.478,14.18
			c-1.9,1.125-4.062,0.826-5.924-0.23c-0.259-0.467,0.405-0.812,0.592-1.221c-0.199-3.398,0.072-6.359,3.841-8.701
			c1.343-0.836,3.07-1.529,4.526-2.332C43.415,48.492,44.893,47.228,46.387,47.611z M34.438,61.208
			c0.263,0.477,0.654-0.031,0.917,0.443c-0.397,0.221-1.677-0.51-1.425,0.139c1.625,0.43,3.218,0.666,4.794-0.24
			c5.116-2.939,2.171-7.885,4.267-11.135c0.577-0.895,1.664-1.326,2.157-2.426c-4.195,2.615-11.577,5.133-10.413,10.117
			c0.914-1.432,1.479-3.486,2.86-4.498c-1.331,1.703-2.314,3.451-2.212,5.342c-0.203,0.234-0.746,0.973-0.231,0.943
			c0.569-1.73,1.503-3.99,3.277-5.203c-1.183,1.363-2.377,2.723-2.287,4.25c0.708-0.523,0.943-1.678,1.86-1.814
			c-1.009,0.986-1.726,2.012-2.24,3.064c1.408-0.16,3.07-1.662,4.008-2.51c-0.929,1.426-2.857,2.496-4.276,2.906
			c1.112,0.604,2.412-0.23,3.638-0.5C37.471,61.187,35.974,61.05,34.438,61.208z"/>
		<path fill-rule="evenodd" clip-rule="evenodd" fill="#FEF5BA" d="M39.13,60.087c-1.226,0.27-2.525,1.104-3.638,0.5
			c1.419-0.41,3.348-1.48,4.276-2.906c-0.938,0.848-2.6,2.35-4.008,2.51c0.514-1.053,1.23-2.078,2.24-3.064
			c-0.917,0.137-1.152,1.291-1.86,1.814c-0.09-1.527,1.104-2.887,2.287-4.25c-1.774,1.213-2.708,3.473-3.277,5.203
			c-0.515,0.029,0.028-0.709,0.231-0.943c-0.103-1.891,0.881-3.639,2.212-5.342c-1.381,1.012-1.946,3.066-2.86,4.498
			c-1.164-4.984,6.218-7.502,10.413-10.117c-0.493,1.1-1.58,1.531-2.157,2.426c-2.095,3.25,0.85,8.195-4.267,11.135
			c-1.577,0.906-3.17,0.67-4.794,0.24c-0.252-0.648,1.028,0.082,1.425-0.139c-0.263-0.475-0.653,0.033-0.917-0.443
			C35.974,61.05,37.471,61.187,39.13,60.087z"/>
	</g>
	<g>
		<path fill-rule="evenodd" clip-rule="evenodd" fill="#FEF5BA" d="M118.479,27.876c-2.036,3.039-3.825,7.084-8.35,7.135
			c0.028-0.123,0.152-0.15,0.151-0.303c-0.672,0.037-1.105,0.311-1.82,0.303c0.471-0.539,1.451-0.572,2.125-0.91
			c-0.354-0.441-0.818,0.285-1.367,0.152c1.18-0.895,2.539-1.611,3.947-2.277c-1.229,0.088-2.902,1.043-3.947,1.822
			c1.186-1.195,3.33-2.742,5.466-3.492c-2.629,0.51-5.116,2.475-6.983,4.25c0.534-1.691,2.746-3.023,4.402-4.098
			c-0.952-0.141-1.926,1.008-2.885,1.365c0.045-0.768,1.789-1.145,2.277-1.973c-0.123,0.027-0.15,0.152-0.303,0.15
			c0.641-1.035,3.855-1.598,5.616-1.518C117.214,28.13,117.763,27.919,118.479,27.876z"/>
		<path fill-rule="evenodd" clip-rule="evenodd" d="M106.485,35.923c-0.264-0.73,0.291-1.77,0.607-2.43
			c1.162-2.416,3.94-4.697,7.135-5.312c0.834-0.16,1.637,0.016,2.43-0.152c1.174-0.25,2.103-1.136,3.035-1.367
			c-0.408,1.591-1.654,2.369-2.428,3.492c-0.596,0.863-0.9,2.027-1.67,2.885c-2.055,2.289-4.75,1.918-7.591,2.43
			c-0.3,0.053-1.153,0.186-1.215,0.605C106.612,36.099,106.519,36.041,106.485,35.923z M116.809,28.484
			c-1.761-0.08-4.976,0.482-5.616,1.518c0.152,0.002,0.18-0.123,0.303-0.15c-0.488,0.828-2.232,1.205-2.277,1.973
			c0.959-0.357,1.933-1.506,2.885-1.365c-1.656,1.074-3.868,2.406-4.402,4.098c1.867-1.775,4.354-3.74,6.983-4.25
			c-2.136,0.75-4.28,2.297-5.466,3.492c1.045-0.779,2.719-1.734,3.947-1.822c-1.408,0.666-2.768,1.383-3.947,2.277
			c0.549,0.133,1.014-0.594,1.367-0.152c-0.674,0.338-1.654,0.371-2.125,0.91c0.715,0.008,1.148-0.266,1.82-0.303
			c0.001,0.152-0.123,0.18-0.151,0.303c4.524-0.051,6.313-4.096,8.35-7.135C117.763,27.919,117.214,28.13,116.809,28.484z"/>
	</g>
	<g>
		<path fill-rule="evenodd" clip-rule="evenodd" fill="#FEF5BA" d="M49.926,85.937c0.427-2.396,0.433-5.34,3.176-6.584
			c0.016,0.082-0.052,0.133-0.011,0.225c0.399-0.201,0.591-0.484,1.028-0.672c-0.143,0.455-0.731,0.738-1.05,1.125
			c0.333,0.174,0.421-0.393,0.792-0.459c-0.479,0.861-1.116,1.662-1.795,2.443c0.725-0.381,1.49-1.412,1.917-2.166
			c-0.402,1.045-1.294,2.562-2.395,3.592c1.465-1.016,2.455-2.879,3.117-4.461c0.128,1.174-0.863,2.578-1.584,3.678
			c0.618-0.17,0.904-1.131,1.392-1.605c0.178,0.479-0.783,1.176-0.859,1.812c0.067-0.051,0.051-0.135,0.144-0.174
			c-0.112,0.803-1.921,2.006-3.015,2.43C50.629,85.445,50.351,85.718,49.926,85.937z"/>
		<path fill-rule="evenodd" clip-rule="evenodd" d="M55.079,77.822c0.356,0.375,0.297,1.156,0.28,1.643
			c-0.06,1.783-1.142,3.918-2.924,5.148c-0.465,0.322-1.002,0.43-1.439,0.744c-0.649,0.467-0.977,1.256-1.484,1.646
			c-0.178-1.08,0.374-1.889,0.544-2.779c0.131-0.686,0.005-1.475,0.245-2.205c0.638-1.945,2.38-2.441,3.974-3.514
			c0.168-0.111,0.653-0.422,0.578-0.695C54.954,77.748,55.027,77.759,55.079,77.822z M50.782,85.121
			c1.094-0.424,2.903-1.627,3.015-2.43c-0.093,0.039-0.077,0.123-0.144,0.174c0.076-0.637,1.037-1.334,0.859-1.812
			c-0.488,0.475-0.773,1.436-1.392,1.605c0.721-1.1,1.712-2.504,1.584-3.678c-0.662,1.582-1.651,3.445-3.117,4.461
			c1.101-1.029,1.993-2.547,2.395-3.592c-0.428,0.754-1.192,1.785-1.917,2.166c0.68-0.781,1.316-1.582,1.795-2.443
			c-0.37,0.066-0.458,0.633-0.792,0.459c0.319-0.387,0.908-0.67,1.05-1.125c-0.438,0.188-0.629,0.471-1.028,0.672
			c-0.041-0.092,0.027-0.143,0.011-0.225c-2.743,1.244-2.749,4.188-3.176,6.584C50.351,85.718,50.629,85.445,50.782,85.121z"/>
	</g>
	<g>
		<path fill-rule="evenodd" clip-rule="evenodd" fill="#FEF5BA" d="M44.605,68.044c3.115-1.92,6.421-4.857,10.558-3.025
			c-0.077,0.1-0.201,0.074-0.264,0.213c0.626,0.244,1.135,0.176,1.782,0.479c-0.653,0.297-1.558-0.08-2.311-0.053
			c0.138,0.547,0.862,0.08,1.307,0.43c-1.446,0.324-2.979,0.41-4.537,0.434c1.154,0.428,3.073,0.256,4.347-0.02
			c-1.573,0.594-4.167,1.111-6.421,0.908c2.603,0.627,5.682-0.127,8.118-0.969c-1.188,1.318-3.753,1.609-5.707,1.902
			c0.809,0.521,2.171-0.117,3.192-0.047c-0.359,0.68-2.102,0.299-2.891,0.852c0.124,0.023,0.201-0.076,0.339-0.014
			c-1.013,0.678-4.172-0.145-5.74-0.949C45.861,68.339,45.275,68.302,44.605,68.044z"/>
		<path fill-rule="evenodd" clip-rule="evenodd" d="M58.856,65.703c-0.062,0.773-0.998,1.488-1.561,1.957
			c-2.06,1.717-5.535,2.639-8.696,1.871c-0.825-0.199-1.483-0.693-2.273-0.869c-1.173-0.26-2.385,0.162-3.33-0.018
			c1.032-1.277,2.489-1.469,3.659-2.168c0.899-0.537,1.659-1.469,2.716-1.932c2.82-1.23,5.118,0.227,7.914,0.941
			c0.295,0.076,1.126,0.311,1.357-0.049C58.814,65.49,58.875,65.58,58.856,65.703z M46.377,68.185
			c1.568,0.805,4.727,1.627,5.74,0.949c-0.138-0.062-0.215,0.037-0.339,0.014c0.789-0.553,2.532-0.172,2.891-0.852
			c-1.021-0.07-2.383,0.568-3.192,0.047c1.954-0.293,4.519-0.584,5.707-1.902c-2.436,0.842-5.515,1.596-8.118,0.969
			c2.254,0.203,4.848-0.314,6.421-0.908c-1.273,0.275-3.192,0.447-4.347,0.02c1.558-0.023,3.091-0.109,4.537-0.434
			c-0.444-0.35-1.168,0.117-1.307-0.43c0.753-0.027,1.658,0.35,2.311,0.053c-0.647-0.303-1.156-0.234-1.782-0.479
			c0.062-0.139,0.187-0.113,0.264-0.213c-4.137-1.832-7.443,1.105-10.558,3.025C45.275,68.302,45.861,68.339,46.377,68.185z"/>
	</g>
	<path fill-rule="evenodd" clip-rule="evenodd" fill="#849E87" d="M80.384,15.85c0-1.121,2.24-4.201,2.078-4.863
		c-0.161-0.661-1.145-2.979-2.266-4.752c-1.12-1.774-2.894-2.148-2.894-2.148s0-0.84,0.093-1.68c0.094-0.84,0-1.307,0.094-2.054
		C77.507,0.217,77.599,0.102,77.741,0H7.083c1.018,1.409,3.002,4.135,3.752,5.021c1.026,1.214,4.294,6.722,4.854,8.028
		s1.587,6.068,2.334,8.589s2.987,3.827,3.828,4.574s1.867,3.735,2.333,4.202s1.96,3.547,1.96,3.547s0.561,0.84,0.654,1.4
		c0.094,0.561,1.68,2.24,1.982,5.414s3.152,4.762,3.6,5.881s4.406,5.041,5.526,5.975c1.121,0.936,8.329,1.904,9.056,1.775
		c0.727-0.131,4.014,0.746,8.589,2.053c4.574,1.307,8.215-2.053,10.082-3.734c1.867-1.68,6.254-6.068,7.667-6.549
		s2.415-3.254,2.882-4.561s1.494-5.508,1.494-5.508l1.773-2.613l1.65-3.998l0.777-0.484l0.652-1.959c0,0-0.279-2.707-0.467-4.014
		C81.877,21.73,80.384,16.97,80.384,15.85z"/>
	<path fill-rule="evenodd" clip-rule="evenodd" fill="#849E87" d="M85.636,0c0.145,0.078,0.266,0.164,0.35,0.26
		c0.746,0.84,1.866,2.053,3.036,4.396c1.169,2.345,4.271,4.5,5.832,4.845s4.481,1.774,5.694,2.147
		c1.215,0.373,2.428-1.867,4.762-2.147s12.136-3.641,14.937-4.48c2.026-0.608,5.756-3.479,7.663-5.021H85.636z"/>
	<path fill-rule="evenodd" clip-rule="evenodd" fill="#FFFFFF" d="M58.591,108.15c0,0,3.279-1.068,4.118-2.975
		c0.839-1.906,1.907-3.736,2.593-4.576c0.687-0.838,1.526-3.355,2.517-4.193c0.992-0.84,2.211-1.754,1.982-3.51
		c-0.229-1.754,0.306-4.422,1.145-5.49s3.432-4.881,3.584-7.855c0.153-2.975,0.076-9.457,0.382-10.906s1.679-3.432,1.679-4.652
		s-0.84-4.576-1.984-5.338c-1.143-0.764-3.279-0.535-3.279-0.535s-0.152-3.355,0.458-5.414s2.288-7.475,2.288-7.475
		s-3.051,2.059-4.118,3.203s-5.186,5.645-6.254,6.33c-1.068,0.688-6.056,3.062-7.68,2.332c-1.625-0.73-3.913-2.104-5.361-2.256
		c-1.449-0.152-4.424-0.305-4.424-0.305s10.067,6.939,11.974,8.693c1.907,1.756,3.279,3.586,3.279,4.195
		c0,0.611,0.077,5.033-0.381,6.33c-0.458,1.297-1.373,3.051-1.83,3.355c-0.458,0.307-1.831,3.586-1.831,4.119
		s-1.678,3.66-1.983,4.195c-0.305,0.533-2.212,3.127-2.212,3.66s-0.472,1.012-0.472,1.012s-1.882,2.338-2.04,2.76
		c-0.157,0.424-1.226,2.787-0.768,2.939c0.458,0.152,0.888,0.061,0.888,0.061s-0.653,1.803-0.506,2.762
		c0.146,0.959,0.076,1.449,0.686,1.449c0.61,0,1.068,0.076,1.068,0.076s-0.533,0.977-0.648,1.594s0.346,1.201,0.953,1.381
		s0.839,0.305,0.839,0.305s0.534,0.992,0.991,1.449c0.458,0.457,1.144,0.457,1.144,0.457S55.312,108.378,58.591,108.15z"/>
	<path fill-rule="evenodd" clip-rule="evenodd" fill="#FFFFFF" d="M100.767,20.901c-0.839-2.821-2.975-7.626-3.127-8.542
		c-0.152-0.915-0.305-1.906-0.305-1.906s-2.822-0.61-4.043-1.297c-1.22-0.687-3.66-2.669-4.271-4.5C88.446,2.93,87.29,0.87,86.314,0
		H77.24c0.196,0.395,0.367,0.8,0.465,1.168c0.347,1.314-0.657,2.955,0.028,2.955c0.688,0,2.57,1.818,2.975,3.051
		c0.287,0.872,1.678,3.127,1.754,3.812c0.076,0.688-1.143,2.909-1.372,3.51c-0.229,0.6-0.915,2.896-0.534,4.27
		c0.382,1.373,1.602,3.51,1.602,5.034c0,1.525,0.382,3.737,0.458,4.958c0.076,1.221-0.077,3.584,0.61,5.414
		c0.686,1.83,0.686,3.432,0.838,4.5c0.153,1.068,1.679,3.508,1.602,4.195c-0.076,0.686,0.203,3.131,2.275,3.549
		c0,0,1.996,0.035,2.759-0.65c0.763-0.688,0.991-1.525,0.991-1.525s1.236-0.332,1.983-0.459c0.747-0.125,0.763-0.609,0.839-0.99
		c0.076-0.383,0.457-0.229,1.221-0.611c0.762-0.381,1.119-1.393,1.208-1.764s-0.064-0.828-0.064-0.828s0.872-0.041,1.067-0.688
		c0.197-0.645,0.84-2.287,0.84-2.822c0-0.533,0.586-0.602,0.99-1.371c0.406-0.771,1.297-1.832,1.373-2.746
		c0.076-0.916-0.305-4.195-0.305-5.034S101.605,23.723,100.767,20.901z"/>
	<g>
		<path fill-rule="evenodd" clip-rule="evenodd" d="M31.661,37.535c1.9-0.332,3.066,0.889,4.32,1.68
			c1.152,0.729,2.495,0.859,3.6,1.682C36.303,40.414,34.963,37.992,31.661,37.535z"/>
		<path fill-rule="evenodd" clip-rule="evenodd" d="M54.581,102.576c0.292-0.547,1.284-0.105,1.2,0.48
			C55.263,103.013,55.325,102.39,54.581,102.576z"/>
		<path fill-rule="evenodd" clip-rule="evenodd" d="M59.261,102.935c1.061-0.299,2.166,0.395,2.04,1.682
			C60.75,103.927,60.492,102.945,59.261,102.935z"/>
		<path fill-rule="evenodd" clip-rule="evenodd" d="M59.861,101.015c0.66-0.518,1.36,0.945,2.64,0.602
			C61.485,102.234,60.782,101.201,59.861,101.015z"/>
		<path fill-rule="evenodd" clip-rule="evenodd" d="M61.061,100.537c0.136-0.492,0.514,0.092,0.96,0
			C61.856,100.845,61.285,100.562,61.061,100.537z"/>
		<path fill-rule="evenodd" clip-rule="evenodd" d="M61.181,100.056c-0.207-0.674,1.324-0.189,1.32,0.6
			C62.098,100.494,61.697,99.705,61.181,100.056z"/>
		<path fill-rule="evenodd" clip-rule="evenodd" d="M62.501,92.376c0.635-2.926,1.267-6.893,2.04-10.08
			C64.095,85.89,63.834,89.669,62.501,92.376z"/>
		<path fill-rule="evenodd" clip-rule="evenodd" d="M76.062,26.256c1.031-0.479,3.033,0.062,3.359,1.079
			C78.512,26.765,77.455,26.341,76.062,26.256z"/>
		<path fill-rule="evenodd" clip-rule="evenodd" d="M76.54,23.615c0.939-0.501,2.846,0.009,3.24,0.84
			C78.896,23.98,77.801,23.715,76.54,23.615z"/>
		<path fill-rule="evenodd" clip-rule="evenodd" d="M86.142,37.416c-0.031-0.521,1.551-0.785,2.039-0.24
			C87.565,37.337,86.757,36.863,86.142,37.416z"/>
		<path fill-rule="evenodd" clip-rule="evenodd" d="M86.381,38.736c0.368-0.473,1.247-0.434,1.8-0.721
			C87.876,38.55,87.202,38.716,86.381,38.736z"/>
		<path fill-rule="evenodd" clip-rule="evenodd" d="M86.62,43.294c-0.121-1.66,2.35-2.174,3.48-1.439
			c-0.221,0.5-0.346-0.082-0.6-0.119C88.479,41.585,87.088,42.351,86.62,43.294z"/>
		<path fill-rule="evenodd" clip-rule="evenodd" d="M86.62,38.134c0.116-0.314,0.582-0.68,0.961-0.359
			C87.307,37.941,86.945,38.019,86.62,38.134z"/>
		<path fill-rule="evenodd" clip-rule="evenodd" d="M88.301,29.255c0.605-0.068,1.351,1.35,0.96,2.279
			C88.939,31.021,89.062,29.654,88.301,29.255z"/>
		<path fill-rule="evenodd" clip-rule="evenodd" d="M91.901,41.617c0.322-0.41,1.65-0.576,1.92,0
			C93.511,41.699,92.519,41.289,91.901,41.617z"/>
		<path fill-rule="evenodd" clip-rule="evenodd" d="M94.901,42.576c0.973-0.283,2.049-1.061,2.04-2.16
			c-0.005-0.539-0.462-0.773-0.601-1.32c-0.044-0.174,0.135-0.547,0.12-0.721c-0.134-1.582-1.416-2.346-0.84-4.199
			c0.011,1.443,0.992,2.646,1.2,3.959c0.047,0.303-0.085,0.67,0,0.961c0.13,0.449,0.582,0.777,0.6,1.199
			C97.472,41.492,96.304,42.701,94.901,42.576z"/>
		<path fill-rule="evenodd" clip-rule="evenodd" d="M96.102,15.455c-0.095,2.477,0.155,6.01,0.359,8.16
			C95.612,21.177,95.716,18.021,96.102,15.455z"/>
		<path fill-rule="evenodd" clip-rule="evenodd" d="M97.062,38.375c0.076-0.432,0.574,0.033,1.08-0.119
			c1.141-2.324-0.312-4.572,0-6.961c0.116-1.424,0.138,1.332,0.24,1.801c0.484,0.555,0.522,1.557,0.719,2.4
			c0.637-0.086,0.705-0.736,0.961-1.201c0.025-0.465-0.725-0.154-0.721-0.6c0.395-0.201,0.529,0.064,0.84,0.24
			c1.679-2.141-0.414-5.674,0.961-8.16c-0.412,2.324,0.516,4.503,0.359,6.839c-0.947,0.883-1.062,3.135-2.52,3.121
			c-0.352,1.527-0.048,3.711-1.681,3.959c0.223-0.418,0.878-0.402,0.841-1.08C98.052,38.503,97.37,38.589,97.062,38.375z"/>
		<path fill-rule="evenodd" clip-rule="evenodd" d="M92.741,34.416c-0.32,1.322,0.516,2.492,0.6,3.719
			c0.031,0.445-0.143,0.889-0.119,1.32c0.07,1.342,1.339,2.293,1.079,3.84c-0.625,0.336-1.194,0.727-2.159,0.721
			c0.006-2.135-1.381-3.652-1.801-5.039c-0.391-1.295,0.217-3.025-0.48-4.561c0.177,1.502-0.209,2.756,0,4.32
			c0.327,2.426,2.408,4.311,1.44,6.479c-0.835,0.688-1.637,1.404-3.36,1.201c-1.693-0.764-1.334-2.189-2.039-4.201
			c-0.223-0.635-0.838-1.117-1.08-1.68c-0.793-1.84,0.155-3.994-0.6-6c-0.149,0.783,0.072,0.949-0.24,1.68
			c-0.854-2.43-1.834-6.322-0.961-9c0.155-0.475-0.395-0.244-0.24-0.72c0.789-4.06-2.51-6.528-1.92-10.44
			c0.287-1.896,1.877-2.922,1.92-5.279c-1.406-2.578-1.6-6.926-5.16-6.961c-1.09-0.789-1.682-2.076-2.639-2.999
			c0.139,1.433,1.887,2.536,1.92,3.84c0.657-0.124,1.746,0.034,2.399,0.601c0.606,0.525,0.659,1.64,1.08,2.52
			c0.607,1.27,1.681,2.083,1.8,3.12c0.199,1.725-1.002,2.791-1.32,4.2c-0.03-1.352,0.884-2.396,0.721-3.48
			c-0.684,1.724-1.309,2.86-1.439,4.561c-0.263,3.398,2.334,6.428,1.68,9.119c-0.541-0.059-1.193-0.512-1.561-0.359
			c0.969,0.896,3.852,2.803,1.08,3.96c-0.534-0.307-0.686-0.994-1.44-1.08c0.056,0.785,0.952,0.729,1.081,1.439
			c-1.225,1.871-1.396,4.539-2.761,5.879c-2.201,2.166-4.296,4.484-6.36,6.721c-2.168,1.271-4.826,2.693-6.359,4.201
			c2.096-1.883,5.094-2.518,7.32-4.201c1.742-1.318,2.469-3.732,4.439-4.439c-1,2.629-1.236,5.115-2.76,7.08
			c-0.939,1.209-2.475,1.92-3.721,3c-3.309,2.867-5.686,6.926-9.72,8.52c-0.037-0.277,0.347-0.133,0.36-0.359
			c-1.689,0.744-3.986,1.479-6.24,0.84c-1.45-0.41-2.597-1.365-3.959-1.68c-3.157-0.727-7.162-0.607-10.081-1.441
			c-1.609-0.459-2.843-0.783-3.96-1.439c-1.954-1.646-3.462-3.738-4.92-5.879c-1.747-1.23-3.24-2.705-3.48-5.281
			c-0.047-0.502,0.089-1.045,0-1.561c-0.26-1.514-1.492-2.936-1.68-4.318c0.931,0.348,1.467,1.092,2.52,1.318
			c-0.4-1.035-1.887-1.139-2.76-1.92c-1.315-1.174-1.535-3.307-2.76-4.559c-1.012-3.348-4.338-4.611-5.641-7.681
			c-0.267-0.631-0.106-1.367-0.72-1.92c-0.723-2.846-1.186-5.411-2.16-7.8C13.571,7.41,9.59,4.006,6.993,0H6.876
			C9.082,4.243,13.17,7.547,15.1,12.575c1.849,4.814,2.324,10.239,5.64,13.92c0.526,0.584,1.311,0.866,1.8,1.44
			c1.575,1.85,1.667,4.799,3.48,6.359c-0.061,1.461,1.324,2.375,1.8,3.84c0.519,1.598,0.397,3.656,1.2,5.16
			c0.862,1.617,2.206,2.332,3.36,3.361c1.593,2.691,3.763,5.76,6.96,6.719c1.713,0.516,3.454,0.592,5.28,1.201
			c1.106,0.369,2.318,1.311,3.6,1.92c3.756,1.785,7.017,4.506,9.72,6.84c0.783,0.676,3.008,2.871,3.24,3.84
			c0.131,0.547-0.001,1.287,0,1.92c0.001,0.764,0.068,1.576,0,2.16c-0.138,1.172-0.525,3.732-1.081,4.801
			c-0.238,0.459-0.804,0.771-1.079,1.199c-0.982,1.527-1.595,3.869-2.28,5.4c-1.231,2.752-3.129,4.475-3.96,7.439
			c-1.19,0.461-1.961,2.025-2.521,3.48c-0.597,1.557-0.943,2.348,0.601,2.76c-0.457,1.018-1.054,2.723-0.36,3.84
			c0.316,0.125,0.737,0.145,1.2,0.121c-0.094-0.773-0.995-0.025-1.2-0.721c-0.16-0.564-0.048-1.242,0.24-1.68
			c0.714-0.193,0.288,0.752,0.84,0.721c0.092-0.732-0.379-0.902-0.84-1.08c0.159-1.521,1.759-2.242,1.8-3.48
			c-0.632,0.51-0.808,1.809-1.68,1.799c-1.343-0.012-0.749-1.686-0.12-2.52c0.168,0.232,0.065,0.734,0.6,0.6
			c-0.048-0.512-0.532-0.588-0.6-1.08c0.239-1.27,1.648-1.764,2.28-2.76c0.508-0.799,0.611-1.713,1.08-2.52
			c0.436-0.752,1.081-1.262,1.68-2.039c0.997-1.295,1.181-3.254,2.28-4.561c0.236-1.604,0.775-2.904,1.68-3.84
			c0.005,0.164-0.057,0.264-0.12,0.359c1.923-2.217,1.814-5.924,2.4-9.6c1.445,1.314,2.236,3.283,3.24,5.039
			c-0.162-1.139-0.718-2.406-1.32-3.359c-0.667-1.057-1.708-2.238-2.64-3.24c-4.108-4.416-8.613-8.125-13.8-11.279
			c3.84-0.219,5.463,1.717,8.521,2.039c9.321,0.986,11.335-8.115,17.28-10.92c-1.379,4.268-3.755,11.561-0.479,15.6
			c-0.002,0.336-0.328-0.285-0.24,0.24c0.846,0.834,1.406,1.953,2.16,2.881c-0.15-0.891-0.721-1.359-1.08-2.041
			c0.344,0.062,0.669,0.764,0.959,0.48c-0.238-0.24-0.609-0.35-0.72-0.719c0.405,0.066,0.794,1.045,1.081,0.479
			c-1.672-0.848-2.614-2.426-3.121-4.439c0.451,0.332,0.723-0.342,1.44-0.121c2.382,1.08,4.073,5.594,2.16,8.4
			c0.423-0.777,0.294-2.105,0.601-3c-0.572,0.26-0.616,1.145-0.721,1.682c-0.255,1.303-0.61,2.637-0.6,3.959
			c0.021,2.867-0.193,5.258-0.36,7.801c-0.106,1.613-0.319,3.352-0.72,4.799c-0.777,2.805-3.588,5.273-4.08,8.52
			c-0.25,1.648-0.275,2.969-1.08,3.842c0.674,0.037,0.641-1.15,1.08-0.961c-0.143,1.805-1.691,2.65-2.64,3.84
			c-1.023,1.285-1.299,3.086-2.64,4.201c-0.053-0.229,0.163-0.725-0.24-0.602c-0.541,2.83-2.273,5.814-4.68,6.721
			c-1.481,0.559-3.48-0.299-3.72-1.561c-0.394-2.072,2.281-2.93,2.16-4.799c0.996-0.219,2.698-2.01,2.041-3.48
			c-0.83,1.17-1.191,2.809-2.52,3.48c-0.147,1.893-1.7,2.379-2.28,3.84c-2.131-0.496-1.249-2.869-0.12-3.84
			c-0.034-2.314,1.935-2.625,2.159-4.682c-2.128,1.432-2.128,4.992-4.08,6.602c-0.838-0.203-1.305-0.775-1.56-1.561
			c0.295-0.307,0.42-0.781,0.96-0.84c0.572-0.012,0.569,0.551,1.08,0.6c-0.143-0.701-0.686-0.926-1.439-0.721
			c0.918-2.281,2.423-3.975,3.479-6.119c-0.823,1.074-1.89,2.33-2.64,3.48c-0.494,0.758-0.682,1.545-1.08,2.4
			c-0.258,0.553-0.783,0.846-0.72,1.439c0.088,0.836,1.19,1.428,2.16,1.68c0.042,1.279,1.146,1.494,1.92,2.039
			c-0.051,2.213,1.864,2.457,3.6,2.881c1.431-0.682,3.362-1.545,4.319-2.881c0.391-0.543,0.379-1.324,0.721-2.158
			c0.348-0.852,1.135-1.809,1.8-2.881c0.658-1.061,1.049-2.34,1.68-3.119c0.769-0.949,1.825-1.49,2.28-2.4
			c0.576-1.156,0.109-2.754,0.359-3.961c0.549-2.643,2.248-4.324,3.24-6.359c0.609-1.252,1.248-2.793,1.439-4.439
			c0.438-3.754,0.107-7.879,0.602-11.521c0.191-1.422,1.156-2.568,1.318-4.08c0.424-3.922-1.148-7.262-4.799-7.08
			c-0.531-9.266,5.225-14.283,6.72-22.32c1.376-1.463,1.841-3.838,2.64-5.879c0.588,0.672,0.414-0.756,1.2-0.6
			c0.179,0.568-0.16,2.072,0,3.238c0.165,1.205,1.411,2.963,1.56,5.16c0.051,0.748-0.09,1.508,0,2.281
			c0.176,1.502,0.82,1.836,1.201,3c0.562,1.719,0.453,3.332,1.439,4.08c1.408,1.068,4.268-0.023,5.16-1.201
			c0.143-0.377,0.135-0.904,0.359-1.199c1.157,0.156,1.583-0.418,2.4-0.6c0.85-1.371-0.469-2.576-0.72-3.84
			C93.345,38.023,93.577,36.095,92.741,34.416z"/>
		<path fill-rule="evenodd" clip-rule="evenodd" d="M64.901,38.976c-0.739,1.232-2.15,2.156-3.72,3
			c-1.624,0.871-3.306,1.059-5.28,1.439c-2.247,0.434-4.237,1.215-7.08,0.959c-1.036-0.092-2.285-0.201-3.24-0.479
			c-1.776-0.52-3.209-1.834-4.92-2.16c2.947,0.66,5.172,2.186,8.52,2.279c1.599,0.045,3.037-0.076,4.32-0.48
			c0.944-0.297,2.022-0.994,3.36-1.199c0.567-0.088,1.128,0.168,1.68,0.119C61.229,42.222,63.236,40.144,64.901,38.976z"/>
		<path fill-rule="evenodd" clip-rule="evenodd" d="M53.021,93.576c0.016-0.666,0.805-1.594,1.561-1.92
			C54.09,92.326,53.367,92.761,53.021,93.576z"/>
		<path fill-rule="evenodd" clip-rule="evenodd" d="M63.821,38.255c0.415,0.369,0.967-0.654,1.56-0.121
			c-1.524,1.895-4.374,1.383-7.32,1.561c1.671-1.135,3.943,0.178,5.28-0.84c0.551-0.42,0.815-1.426,1.2-2.039
			c0.441-0.705,0.981-1.303,1.2-2.16c3.977-4.398,10.463-7.28,11.04-14.76c0.152-1.969,0.488-4.243,0.24-6.481
			c-0.123-1.113-0.793-2.827,0-3.959c0.061,0.821-0.168,2.23,0.24,3.24c0.188-2.24,1.342-5.434,0.12-7.8
			c0.567,0.624,1.152,2.179,1.08,3.6c-0.089,1.757-0.966,3.04-1.08,4.681c-0.237,3.433,0.228,6.547-0.601,9.239
			c-2.258,7.356-9.471,9.174-12.719,15.719C63.963,38.158,63.941,38.255,63.821,38.255z"/>
		<path fill-rule="evenodd" clip-rule="evenodd" d="M59.381,92.496c-0.341-0.447,0.236-1.025,0.48-1.561
			c0.451-0.99,0.792-2.125,1.2-3.119C60.958,89.353,60.1,91.173,59.381,92.496z"/>
		<path fill-rule="evenodd" clip-rule="evenodd" d="M74.142,16.295c-0.807,3.754-3.445,5.676-6.121,7.561
			c-1.274,0.057-2.65,0.999-4.2,1.32c-1.457,0.301-2.867,0.452-3.84,1.319c-0.004,0.117-0.147,0.093-0.24,0.12
			c2.096-1.981,6.297-1.967,8.879-3.6C71.044,21.483,72.435,18.74,74.142,16.295z"/>
		<path fill-rule="evenodd" clip-rule="evenodd" d="M71.86,6.695c-0.295,1.625-1.082,2.758-2.039,3.72
			C70.181,9.807,71.269,7.869,71.86,6.695z"/>
		<path fill-rule="evenodd" clip-rule="evenodd" d="M127.58,0c-1.163,0.922-2.134,2.035-3.399,2.855
			c-2.426,1.367-4.879,2.395-8.039,3.479c-2.275,0.782-4.633,1.808-6.84,2.16c-0.684,0.108-1.264-0.008-2.16,0.12
			c-2.047,0.293-4.689,1.353-6.48,0.96c-0.51-0.112-0.999-0.751-1.561-1.2c-1.729-1.383-3.225-2.639-4.68-3.96
			c-0.266-0.616-0.803-1.595-1.199-1.68c1.691,3.188,4.67,5.089,7.319,7.319c0.788,0.123,2.243,0.172,3.12,0.121
			c-1.078,1.136-4.803,1.945-5.76,0.119c-0.021,0.18,0.043,0.443-0.12,0.48c-1.706-1.062-4.157-1.289-5.761-2.52
			c-1.371-1.055-2.494-3.158-3.359-4.801C88.001,2.202,87.12,0.97,86.267,0h-0.586c0.301,0.298,0.631,0.578,0.939,0.936
			c1.777,2.051,2.734,5.109,4.681,7.08c1.464,1.48,3.519,1.589,5.521,2.64c1.562,4.638,4.328,8.711,4.08,14.76
			c0.535-0.21,0.45-0.971,0.48-1.439c0.275-4.442-2.736-8.467-3.24-12.841c0.613,0.205,1.147,0.546,1.799,0.601
			c2.273,0.19,3.169-1.326,4.561-1.8c1.494-0.509,3.224-0.475,4.801-0.84c2.086-0.484,4.591-1.363,6.84-2.28
			c4.752-1.939,8.99-3.71,12.059-6.815H127.58z"/>
		<path fill-rule="evenodd" clip-rule="evenodd" d="M94.781,40.175c0.161-0.334,0.925-0.518,1.32-0.24
			C95.854,40.208,95.065,39.939,94.781,40.175z"/>
	</g>
	<path d="M77.918,1.834C77.815,1.208,77.706,0.584,77.435,0h-0.4c0.194,0.541,0.33,1.093,0.391,1.636
		c0.115,1.03-0.249,1.862,0.054,2.811c0.147-0.099,0.237-0.146,0.288-0.165c-0.117-0.395-0.213-0.544-0.086-1.001
		C77.821,2.775,77.737,2.215,77.918,1.834z"/>
	<text transform="matrix(1 0 0 1 7.1079 13.5215)" opacity="0" font-family="'MyriadPro-Regular'" font-size="12">a</text>
</g>
</svg>
