<?xml version="1.0" encoding="utf-8"?>
<!-- Generator: Adobe Illustrator 14.0.0, SVG Export Plug-In . SVG Version: 6.00 Build 43363)  -->
<!DOCTYPE svg PUBLIC "-//W3C//DTD SVG 1.1//EN" "http://www.w3.org/Graphics/SVG/1.1/DTD/svg11.dtd">
<svg version="1.1" id="Layer_1" xmlns="http://www.w3.org/2000/svg" xmlns:xlink="http://www.w3.org/1999/xlink" x="0px" y="0px"
	 width="116.204px" height="59.083px" viewBox="0 0 116.204 59.083" enable-background="new 0 0 116.204 59.083"
	 xml:space="preserve">
<g>
	<path fill="#FFFFFF" d="M0.468,51.935h1.734V36.722H0.468v-1.629H5.75v1.629H3.989v15.213H5.75v1.629H0.468V51.935z"/>
	<path fill="#FFFFFF" d="M9.401,41.845H7.667v-1.498h1.76v-3.652h1.761v3.652h3.311v1.498h-3.311v6.727
		c0,3.102,1.971,3.495,2.969,3.495c0.368,0,0.604-0.053,0.604-0.053v1.603c0,0-0.315,0.053-0.762,0.053
		c-1.524,0-4.598-0.499-4.598-4.914V41.845z"/>
	<path fill="#FFFFFF" d="M23.509,40.033c1.498,0,4.703,0.631,4.703,2.811v1.184h-1.682v-0.762c0-1.104-1.918-1.63-3.021-1.63
		c-2.838,0-5.124,2.128-5.124,5.334c0,3.259,2.391,5.281,5.176,5.281c2.707,0,4.257-1.865,4.257-1.865l0.841,1.34
		c0,0-1.787,2.155-5.176,2.155c-3.941,0-6.937-2.812-6.937-6.911C16.546,42.923,19.568,40.033,23.509,40.033z"/>
	<path fill="#FFFFFF" d="M31.495,37.221c0-0.368-0.21-0.578-0.578-0.578h-1.104v-1.55h1.866c1.13,0,1.603,0.473,1.603,1.55v5.597
		c0,0.604-0.052,1.077-0.052,1.077h0.052c0.5-1.261,2.26-3.284,5.229-3.284c3.285,0,4.441,1.865,4.441,5.123v6.28
		c0,0.394,0.21,0.578,0.578,0.578h1.104v1.55h-1.866c-1.13,0-1.603-0.473-1.603-1.603v-6.332c0-2.076-0.315-3.915-2.89-3.915
		c-2.233,0-4.178,1.551-4.782,3.758c-0.158,0.525-0.21,1.129-0.21,1.76v6.332h-1.787V37.221z"/>
	<path fill="#FFFFFF" d="M47.888,57.48c1.156,0,1.945-0.946,2.444-2.155l0.788-1.813l-4.65-11.009
		c-0.21-0.474-0.447-0.604-0.92-0.604h-0.263v-1.551h0.814c1.183,0,1.55,0.264,2.023,1.445l3.39,8.251
		c0.263,0.657,0.473,1.419,0.473,1.419h0.053c0,0,0.184-0.762,0.447-1.419l3.258-8.251c0.447-1.182,0.841-1.445,2.05-1.445h0.814
		v1.551h-0.263c-0.473,0-0.736,0.131-0.92,0.604l-5.702,13.821c-0.683,1.682-2.023,2.759-3.784,2.759
		c-1.839,0-2.864-1.288-2.864-1.288l0.841-1.313C45.917,56.507,46.758,57.48,47.888,57.48z"/>
	<path fill="#FFFFFF" d="M68.983,36.722h-1.707v-1.629h9.826c1.131,0,1.577,0.473,1.577,1.602v1.84h-1.708V37.3
		c0-0.395-0.211-0.578-0.578-0.578h-5.57v6.937h6.7v1.629h-6.7v8.276h-1.84V36.722z"/>
	<path fill="#FFFFFF" d="M86.718,40.033c3.652,0,5.544,2.811,5.544,6.096c0,0.315-0.052,0.894-0.052,0.894H82.067
		c0.053,3.337,2.391,5.255,5.123,5.255c2.418,0,3.968-1.629,3.968-1.629l0.867,1.34c0,0-1.918,1.893-4.913,1.893
		c-3.916,0-6.91-2.838-6.91-6.911C80.202,42.634,83.171,40.033,86.718,40.033z M90.423,45.603c-0.105-2.732-1.787-4.072-3.731-4.072
		c-2.181,0-4.099,1.418-4.546,4.072H90.423z"/>
	<path fill="#FFFFFF" d="M101.114,40.033c3.652,0,5.544,2.811,5.544,6.096c0,0.315-0.052,0.894-0.052,0.894H96.464
		c0.053,3.337,2.391,5.255,5.123,5.255c2.418,0,3.968-1.629,3.968-1.629l0.867,1.34c0,0-1.918,1.893-4.913,1.893
		c-3.916,0-6.91-2.838-6.91-6.911C94.599,42.634,97.567,40.033,101.114,40.033z M104.819,45.603
		c-0.105-2.732-1.787-4.072-3.731-4.072c-2.181,0-4.099,1.418-4.546,4.072H104.819z"/>
	<path fill="#FFFFFF" d="M110.387,41.845h-1.734v-1.498h1.761v-3.652h1.76v3.652h3.311v1.498h-3.311v6.727
		c0,3.102,1.971,3.495,2.97,3.495c0.368,0,0.604-0.053,0.604-0.053v1.603c0,0-0.315,0.053-0.762,0.053
		c-1.524,0-4.599-0.499-4.599-4.914V41.845z"/>
</g>
<g>
	<path fill="#FFFFFF" d="M0.113,26.368h1.76c0.573,0,0.9-0.287,0.9-0.9V0.136h2.619l14.691,20.503
		c0.982,1.432,2.333,3.765,2.333,3.765h0.082c0,0-0.205-2.251-0.205-3.765V2.632c0-1.76,0.737-2.497,2.497-2.497h3.028v2.538h-1.76
		c-0.573,0-0.9,0.286-0.9,0.9v25.333H22.54L7.848,8.402C6.825,7.011,5.475,4.678,5.475,4.678H5.393c0,0,0.246,2.21,0.246,3.724
		v18.007c0,1.759-0.737,2.497-2.497,2.497H0.113V26.368z"/>
	<path fill="#FFFFFF" d="M43.326,16.219h1.146v-0.246c0-4.297-1.555-5.811-5.32-5.811c-1.023,0-4.011,0.287-4.011,1.801v1.31h-2.66
		v-1.964c0-2.865,4.911-3.479,6.711-3.479c6.507,0,8.062,3.479,8.062,7.898v9.862c0,0.614,0.327,0.9,0.9,0.9h1.719v2.415H47.05
		c-1.759,0-2.455-0.778-2.455-2.456c0-0.9,0.041-1.514,0.041-1.514h-0.082c0.041,0-1.678,4.46-6.834,4.46
		c-3.438,0-6.998-2.005-6.998-6.097C30.722,16.464,39.766,16.219,43.326,16.219z M38.17,27.023c3.929,0,6.302-4.093,6.302-7.653
		v-0.941h-1.187c-3.233,0-9.699,0.082-9.699,4.707C33.586,25.059,35.101,27.023,38.17,27.023z"/>
	<path fill="#FFFFFF" d="M54.168,3.451c0-0.573-0.328-0.9-0.9-0.9h-1.719V0.136h2.906c1.76,0,2.496,0.614,2.496,2.374v13.669h2.128
		c0.777,0,1.76-0.246,2.333-0.982l5.279-6.875h3.396l-5.934,7.53c-1.023,1.269-1.555,1.473-1.555,1.473v0.082
		c0,0,0.614,0.286,1.269,1.514l3.724,6.67c0.369,0.696,0.778,0.9,1.883,0.9h1.105v2.415h-1.924c-2.046,0-2.619-0.328-3.561-2.047
		l-4.092-7.366c-0.45-0.818-1.433-0.9-2.169-0.9h-1.883v10.313h-2.783V3.451z"/>
	<path fill="#FFFFFF" d="M82.485,7.83c5.688,0,8.635,4.379,8.635,9.494c0,0.491-0.081,1.392-0.081,1.392H75.242
		c0.082,5.197,3.724,8.185,7.979,8.185c3.766,0,6.18-2.537,6.18-2.537l1.351,2.087c0,0-2.987,2.946-7.652,2.946
		c-6.098,0-10.763-4.419-10.763-10.763C72.337,11.881,76.961,7.83,82.485,7.83z M88.256,16.505
		c-0.163-4.256-2.782-6.343-5.812-6.343c-3.396,0-6.384,2.21-7.08,6.343H88.256z"/>
	<path fill="#FFFFFF" d="M104.091,7.83c4.992,0,6.711,3.847,6.711,3.847h0.082c0,0-0.082-0.695-0.082-1.555v-6.67
		c0-0.573-0.327-0.9-0.9-0.9h-1.719V0.136h2.906c1.76,0,2.496,0.737,2.496,2.497V25.59c0,0.614,0.328,0.9,0.9,0.9h1.719v2.415
		h-2.864c-1.72,0-2.456-0.778-2.456-2.292c0-0.778,0.082-1.31,0.082-1.31h-0.082c0,0-1.678,4.092-7.08,4.092
		c-5.524,0-8.962-4.419-8.962-10.804C94.842,12.085,98.688,7.83,104.091,7.83z M110.884,18.592c0-4.174-2.128-8.267-6.548-8.267
		c-3.642,0-6.63,3.069-6.63,8.267c0,5.075,2.66,8.308,6.508,8.308C107.651,26.9,110.884,24.445,110.884,18.592z"/>
	<text transform="matrix(1 0 0 1 7.1079 13.5215)" opacity="0" font-family="'MyriadPro-Regular'" font-size="12">a</text>
</g>
</svg>
